<?xml version="1.0" encoding="utf-8"?><svg xmlns="http://www.w3.org/2000/svg" version="1.1" baseProfile="tiny" width="800" height="600" viewBox="0 0 800 600"><g><g stroke="#000000" stroke-width=".98" fill="#FFFFFF"><path d="m474.29 218.39l-.35-.07-.26-.05-5.68.02-.2 1.7 2.71 2.55.51.39.27.2.08.03 1.27.48 1.45.64.55.34-.09.28.44.09 13.42 2.66 5.13-5.24-15.34-3.13-3.91-.89z" /><path d="m476.53 208.98l-3.2-.94-6.04.23-1.26 4.67-.6 3.11-.27 5.44 1.91 2.63 1.37 3.91.3.8.01.03.15.31.15.3.38.74.03.05 6.16-.67-1.07-4.69.09-.28-.55-.34-1.45-.64-1.27-.48-.08-.03-.27-.2-.51-.39-2.71-2.55.2-1.7 5.68-.02.26.05.35.07 2.24-9.41z" /><path d="m467.29 208.27l-.05-1.45-9.41-1.75-.73 2.67-.86 7.77-.02.13-.02.17-3.01-.66-3.67-.1-.37 7.84 6.64-1.79 1.16-.36.11-.03.12.02.62.11 1.59.3 2.01.37 2.21-.27 1.55.25.27-5.44.6-3.11 1.26-4.67z" /><path d="m446.01 202.83l-3.21-.6.64 4.69 1.32 1.31-1.21-.04-.58-.32-1.61-.88-.11-.06-.31.25-1.52 2.9-.01.83 0 .05.05.49.05.07 1.66 1.56.23 0 1.38-.12 1.42-.48.51-.31.15-.09.24-.17.01-.08.05-.22.18-.26.42-.52.16-.13.15-.12 2.73.41.4 3.75.32.31 3.67.1 3.01.66.02-.17.02-.13.86-7.77.73-2.67-11.82-2.24z" /><path d="m449.52 215.05l-.32-.31-.4-3.75-2.73-.41-.15.12-.16.13-.42.52-.18.26-.05.22-.01.08-.23 3.32.48.22-.09.27-.07.12-1.12 1.39-.41.36-1.09.87-.09.06-2.26 1.52-.74.49-.84.59-.1.08-1.7 1.39.36 2.44.22 1.41 10.82-2.99.91-.56.37-7.84z" /><path d="m465.16 221.49l-1.55-.25-2.21.27-.14.51.35.06 2.02.35.48.08.76.03.39.08.21.49-.59 2.82-.77 2.32-.07.2-.46-.15-2.21-.71-.45-.14-.21-.08-3.74 7.62 9.92.24.08-2.64.67-.1.49-.08 2.01-.82-.23-.51-.45-.82-.03-.05-.38-.74-.15-.3-.15-.31-.01-.03-.3-.8-1.37-3.91-1.91-2.63z" /><path d="m461.4 221.51l-2.01-.37-1.59-.3-.62-.11-.12-.02-.11.03-1.16.36-6.64 1.79-.91.56 1.11 3.68 6.43-1.69 4.93 1.93.21.08.45.14 2.21.71.46.15.07-.2.77-2.32.59-2.82-.21-.49-.39-.08-.76-.03-.48-.08-2.02-.35-.35-.06.14-.51z" /><path d="m460.71 227.37l-4.93-1.93-6.43 1.69.53 8.46 1.97-.14 5.12-.46 3.74-7.62z" /><path d="m449.35 227.13l-1.11-3.68-10.82 2.99.54 3.78 11.92 5.37-.53-8.46z" /><path d="m488.41 227.65l-13.42-2.66-.44-.09 1.07 4.69.35.94 2.12 6.58 8.67.47-.45-3.79.1-.98.23-2.14.09-.23.78-2.01.21-.19.69-.59z" /><path d="m478.09 237.11l-2.12-6.58-.35-.94-6.16.67.45.82.23.51-2.01.82-.49.08-.67.1-.08 2.64.07.01 1.68.16.11.02.96.14.38.09.05.01.21.06.61.28.2.12.34.2.06.03.42.21.28.14.2.09.3.01 1.87.11 3.46.2z" /><path d="m495.8 218.53l-3.94-8.08-2.43-1.6-.91.38-3.06.83-2 .33-.47-.03-2.01-.09-1.4-.25-2.85-.81-.2-.23-2.24 9.41 3.91.89 15.34 3.13 2.01-3.57.25-.31z" /><path d="m507.87 197.01l-.54-1.52-.07-.25.12-.28.58-.97-.15-.47-.37-1-1.6-4.18-.76-.67-1.87-1.85-3.56 2.36-.56.66-1.78 3.18-2.02 2.19-3.31 4.71 2.86.89 1.13-.14 2.59-.51 2.06-.41 4.51-1.02 1.55-.35.05-.02 1.14-.35z" /><path d="m494.84 199.81l-2.86-.89-.69 1.87-2.46 2.26-1.38.72-1.42.75-1.12.6-.46.79-.14.49 5.12 2.45.77-.11 8.24-2.24-3.6-6.69z" /><path d="m513.42 204.42l.55-.94-.48-2.53-.18-.49-.11-.11-.56-.55-2.16-2.1-.27-.26-.14-.14-.64-.63-.21.04-1.14.25-.21.05-1.14.35-.05.02-1.55.35-4.51 1.02-2.06.41-2.59.51-1.13.14 3.6 6.69 2.24-.62.07-.02 3.93-.6 1.33.02.74.14.49.05.86.04.14-.01 3.25-.19.44-.02.12-.02.91-.24.46-.61z" /><path d="m514.97 187.64l-3.33-1.85-5.05-2.24-3.38 2.27 1.87 1.85.76.67 1.6 4.18.37 1 .15.47-.58.97-.12.28.07.25.54 1.52.21-.05 1.14-.25.21-.04.64.63.14.14.27.26 2.16 2.1.56.55.11.11.18.49.48 2.53-.55.94 4.99-.75 5.69-1.67 1.12-.34.09-.03 2.43-1.52.47-.35-.99-1.29-.38-.4-4.62-4.7-7.25-5.73z" /><path d="m524.81 185l-4.27-2.85-1.06.59-.41.48-.52.62-.17.28-.07.16-.17.79-.06.05-.17.13-1.57 1.28-.06.05-1.31 1.06 7.25 5.73 1.79-.27.18-.03 3.64-.63.13-.02 1.03-.19 1.74-.43 1.11-.35.65-.25.2-.14.61-.5.79-.76.45-.68-5.27-2.15-4.46-1.97z" /><path d="m501.33 219.06l2.21-2.58-.13-.82-.33-.61-.57-1.06-.05-.09-.77-1.31-1.29-2.4-.85-1.67-1.11-2.02-8.24 2.24-.77.11 2.43 1.6 3.94 8.08 5.53.53z" /><path d="m513.6 220.04l-.9-1.85-.01-.05-.96-2.89-.03-.2-.29-1.66-.04-.24-.31-4.06.41-.99.68-1.61.81-1.46-.91.24-.12.02-.44.02-3.25.19-.14.01-.86-.04-.49-.05-.74-.14-1.33-.02-3.93.6-.07.02-2.24.62 1.11 2.02.85 1.67 1.29 2.4.77 1.31.05.09.57 1.06.33.61.13.82-2.21 2.58.98.09 11.29.89z" /><path d="m525.27 212.83l-1.58-4.26-2.47-2.78-.94-1.06-1.04-.89-.83-.17-4.99.75-.46.61-.81 1.46-.68 1.61-.41.99.31 4.06.04.24.29 1.66.03.2.96 2.89.01.05.9 1.85 3.95.44.82-.95.4-.45 1.78-1.96.37-.41 2.48-2.74.7-.67.22-.11.44-.21.51-.15z" /><path d="m552.67 198.81l-14.31-8.42-3.36-1.97-.46.7-.45.68-.79.76-.61.5-.2.14-.65.25-1.11.35-1.74.43-1.03.19-.13.02-3.64.63-.18.03-1.79.27 4.62 4.7 2.49.34.24.97 2.4.36 1.13.41.81.29.77.28.34.12.04.02.2.1 1.36 1.48.28.36.36.54 1.98 3.03.55-.32 6.09-2.25.29-.02 1.74-.11 2.22.61 2.45 1.69 2.7 1.15 6.01-1.07-8.62-7.24z" /><path d="m539.24 206.37l-1.98-3.03-.36-.54-.28-.36-1.36-1.48-.2-.1-.04-.02-.34-.12-.77-.28-.81-.29-1.13-.41-2.4-.36-.24-.97-2.49-.34.38.4.99 1.29-.47.35-2.43 1.52-.09.03-1.12.34-5.69 1.67.83.17 1.04.89.94 1.06 2.47 2.78 1.58 4.26.95-.26 1.94-.54.67-.19.32-.09.43-.12.3-.09.54-.15.09-.02.17-.05.39-.11.2-.12.09-.06.09-.05 7.08-4.18.71-.43z" /><path d="m677.75 118.41l-1.48.01-.88 0-.44-.03-1.53-.1-.54-.03-1.65-1.12-.49-.38-13.83-2.42-1 .05-4.09.5-.12 0-1.17-.26-4.28-1.09-1.87-1.04-.25-.16-1.29-.54-6.15-.46-5.58-.91-4.25-.92-1.66.48-2.66.77-2.34.55-.67.11-1.81-.43-.35-.2-1.3-.8-1.52-1.33-.22-.44-.13-.27-.11-.21-2.2-1.71-.44-.11-4.02.21-.14.09-.3.2-.31.2-.3.2-1.26.65-5.42-.14-1.14-.51-.46-1.15-2.75-1.03-2.57-.17-.63.34-1.86.88-1.96.85-1.51.18-1.41 0-4.43.4-1.84.2-4.87 1.23-1.38 1.45-2.64 3.41-2.22 5.55-.04.21-1.08 2.71-.82 2.01-.45 1.1-2.51-.74-.23-.12-.57-.52-.67.7-.13.39-.33 2.53.32 1.41.24 1.36-.66.69-.56.2-3.86 1.67-1.2 1.58-.78 4.03.05 1.32.28.75.16.85.04 1.13-.02.25-.01.15-.42 1.17-2.11 1.84-3.55 1.81.09 1.9-.65 1.16-1.02 1.21-.58.68-.07.04-.12.08-.35.14-.29.04-.68.06-.97.15-.18.03-.05.02-.84.47-2.94 3.42-4.52 2.89 1.31.07 3.62-.06 2.84.29 4.43-.43.24.32 2.05 1.85 2.71-.1.88-.16 4.7.12-.99 1.99-.53 1.08-.73 1.48.08.33 2.66 1.52 15.98-.12-.75-2.64-.13-1.2 1.52-5.84 2.97-4.22.26 0 .5 0 .13 0 1.41-.02 1.02-.29 1.01-.83 1.33-1.36.49-.89.16-.48.2-.52 1.24-.87 1.79-1.12.76-.28 1.01-.15 1.85-.43.53-.19 2.63-1.87 1.08-.9 1.42-.61.08-.04.38-.15 4.27 1.05 1.44.59.9.09 3.43-.03 1.75-.3 1.28-.01.59 0 2.41.38.85.31 2.07 1.04.78.77 3.81 4.33 1.05 1.08 1.1-.48 2.99-2.52 0-.77.08-1.05.11-.91 7.42-5.6 1.07-.52 1.37-.2 2.98-.48 2.79-1.48.46-.28 2.15-5.83-.16-.22-.45-.63 1.86-.88 9.13-1.05 1.95.21 1.38.51 1.16.4 4.17-.68 1.12-.37 1.38-.35.76.15.26.05.66.78 4.67-.36 2.24-7.46.13-.13 1.97-2.98.28-.77z" /><path d="m562.33 123.61l-2.59-1.72-.95-.57-5.78-3.08-.3-.11-4.52.21-2.69-1.49-5.78 1.36-.6-.22-2.85-.55-1.24 2.24-.05.16-.11.51-.18 1.33-.03.08-1.06 1.11-.55.24-3.39 1.04-1.24-.22-2.79-.88-1-.53-.29-.2-1.1-.51-3-1.34-2.47.06-.58.24-.73.29-.83.31-.22.08-.42.03-.33.02-.29.01-.64-.07-2.87-.35.94 1.4 3.44 6.51.54.58.94.83 1.83 1.08.14.15.26.31.25.31.97 1.31.11.22.25.57.09.19.01.05.08.54.01.06 0 .11.01.45.01.61.01.87.13 5.98.05.74.17 1.61.26 1.33.07.13.26 1.07.01.04.12.71.08 1.11.01.19-.28 1.28-.42 1.13-.68 1.87-.32.84-.8 2.13-1.99 2.35-.39.36-.87.83-.63.72-.19.2-.16.33-.28.61-.61 1.37-.15.32-.09.22-.23 1.08-.03.95 1.52 5.47 4.55-.88.79-.1.79-.01.79.2 1.49.73 1.54.78.48-1.13.65-1.41 6.35-7.16 2.64.26 2.06.03 1.58-.21 3.78-1.44 1.84-.71 1.28-.53 1.48-.36.99-.35-.24-.32-4.43.43-2.84-.29-3.62.06-1.31-.07 4.52-2.89 2.94-3.42.84-.47.05-.02.18-.03.97-.15.68-.06.29-.04.35-.14.12-.08.07-.04.58-.68 1.02-1.21.65-1.16-.09-1.9 3.55-1.81 2.11-1.84.42-1.17.01-.15.02-.25-.04-1.13-.16-.85-.28-.75-.05-1.32.78-4.03 1.2-1.58 3.86-1.67.56-.2.66-.69-.24-1.36-.32-1.41.33-2.53.13-.39.67-.7z" /><path d="m550.44 161.77l-2.05-1.85-.99.35-1.48.36-1.28.53-1.84.71-3.78 1.44-1.58.21-2.06-.03-2.64-.26-6.35 7.16-.65 1.41-.48 1.13-1.54-.78-1.49-.73-.79-.2-.79.01-.79.1-4.55.88.44 1.16.49 1.14 1.19 2.68.43.71 2.68 4.25 4.27 2.85 4.46 1.97 5.27 2.15.46-.7.09-.15.31-.54 1.57-3.21.45-.75 2.8-4.48 1.18-3.92 1.79-5.26 3.41-5.41 3.84-2.93z" /><path d="m575.2 167.91l-15.98.12-2.66-1.52-.08-.33.73-1.48.53-1.08.99-1.99-4.7-.12-.88.16-2.71.1-3.84 2.93-3.41 5.41-1.79 5.26-1.18 3.92-2.8 4.48-.45.75-1.57 3.21-.31.54-.09.15 3.36 1.97 14.31 8.42 5.99-2.65 3.38-1.62.34-.21.27-.18.26-.23 5.67-6.41 2.15-4.85 3.12-4.15 1.03-5.93.62-3.57-.3-1.1z" /><path d="m582.59 204.96l-.1-.29-.34-.89-3.65-1.09-1.89-.53-.14.31-.73-.16-.4-.11-.34-.1-5.85-2.62-3.12-1.41-2.04-1.02-.51-.14-.87-.26-.34-.05-2.28-.03-1.33-.41-5.99 2.65 8.62 7.24 3.55 5.2 1.05.59.36.06 3.78-.57.05-.01 2.83-.59.23-.05 7.03-.39 2.42-5.33z" /><path d="m622.72 152.31l-1.05-1.08-3.81-4.33-.78-.77-2.07-1.04-.85-.31-2.41-.38-.59 0-1.28.01-1.75.3-3.43.03-.9-.09-1.44-.59-4.27-1.05-.38.15-.08.04-1.42.61-1.08.9-2.63 1.87-.53.19-1.85.43-1.01.15-.76.28-1.79 1.12-1.24.87-.2.52-.16.48-.49.89-1.33 1.36-1.01.83-1.02.29-1.41.02-.13 0-.5 0-.26 0-2.97 4.22-1.52 5.84.13 1.2.75 2.64.3 1.1-.62 3.57-1.03 5.93-3.12 4.15-2.15 4.85-5.67 6.41-.26.23-.27.18-.34.21-3.38 1.62 1.33.41 2.28.03.34.05.87.26.51.14 2.04 1.02 3.12 1.41 5.85 2.62.34.1.4.11.73.16.14-.31 1.89.53 3.65 1.09.34.89.1.29 7.11-.1 6.9-.21.08-.16.12-.46.03-.14.02-.55 0-.28-.08-.25-.06-.28.01-.31.31-1.04 2.32-2.99.05-.07.11-.08.39-.27.12-.08.53-.12.1-.03.17-.04.52-.06.83-.01.64-.01 1.02 0 .58.13.12.54 1.08 3.04.09.11.16.07.11.02 7.75-.39 3.17-.25.48-.18.13-2.49-.17-.77-.21-.8-.23-.53-.14-.33-.11-.21-.14-.62-.24-1.06-.14-.66-.21-1.31.9-1.17.19-.23 1.12-.96.53-.32.84-.61.94-.82.5-2.33-.34-2.51-.83-2.21-1.04-1.7.44-2.96 2.42-1.45 7.16-8.81.81-1.78.03-.23.34-4.19-1.56-3.03-.71-.86-1.44-1-2.74-.62-.75-1.63z" /><path d="m611.73 5.22l-.17-.11-.08-.03-.2-.05-.27-.03-.45.02-.31.06-2.15.63-.39.14-.17.1-.07.05-.09.11-.16.31-.08.08-.12.1-.9.53-.49.28-.2.1-.08.02-.31.08-.28.04-4.43.55-.96-.04-2.26-.16-.14-.01-.45-.09-1.53-.37-9.88 1.01-.14.01-.24 0-4.54-.12-7.7-.11-.12.01-.18.04-.55.15-.15.07-.57.33-.26.18-.06.06-.62.71-.47.84-.06.29-.18.58-.04.1-.06.06-1.48 1.39-.16.12-.13.08-.07.04-.11.03-.16.01-1.26.02-.11-.01-.36-.03-1.91.02-3.79.3-.11.01-5.61.95-2.51 1.63-.16.14-.08.06-.1.04-2.63 1.12-.1.04-.11.01-.28-.08-.2-.08-.06-.03-.36-.19-.28-.21-.4-.31-3.28-1.55-5.03-1.79-.07-.01-.14-.02-.21.02-.37.08-.37.09-.16.04-.63.12-.42.07-.69.06-.36-.01-.17-.03-.24-.05-1.45-.35-1.22 1.2-.18.16-1.09.55-.08.01-9.49 1.59-7.35.18-.92.03-.36.04-2 .29-.16.02-.13.04-6.63 2.05-4.05 1.69-.15.91-.04.2-1.34 4.18-.35.81-.04.07-.12.1-1.84 1.43-.19.13-1.07.7-.15.02-.33-.01-.43 0-.21.02-.17.04-.1.04-.13.07-.09.08-1.64 2.29-2.64 3.37-4.72 5.9-.41.25-.39.23-.89.46-.74.28-.8.3-.34.11-.59.23-.68.33 0 .05.01.04 1.29 1.25 1.64.22.3.07.33.08.23.08 1.15.47.26.12.29.16.44.26 4.06 2.4.9.67.57.43 3.34 3.12.18.2.22.3.49.81.07.12.02.13.01.18-.03.44.03.19.14.24.97 1.43.43.6.55.71 1.84 2.2 1.42.25 1.39 1.05.72.74.57 1.84.03 1.12-.14.21-.59.79-.48.61-.82 1.11-.21 1.48-.07.63.71.79.32.2.83.51 1.98 2.38 6.19 10.49 1.97 3.5-.54 2.9-.37.24-.33.21-.24.15-1.48 1.82-.92 3.21-.55 4.11-.09 1.43.43 1.96 3.32 1.19.69.3.76.4.44.42-.12 1.93-.37 5.46-.29 2.16-.18.15-.21.16-.27.22-.25.2-.38.27-.77.53-.22.78-.08.7-.04.54.36.85.21.26 2.87.35.64.07.29-.01.33-.02.42-.03.22-.08.83-.31.73-.29.58-.24 2.47-.06 3 1.34 1.1.51.29.2 1 .53 2.79.88 1.24.22 3.39-1.04.55-.24 1.06-1.11.03-.08.18-1.33.11-.51.05-.16 1.24-2.24 2.85.55.6.22 5.78-1.36 2.69 1.49 4.52-.21.3.11 5.78 3.08.95.57 2.59 1.72.57.52.23.12 2.51.74.45-1.1.82-2.01 1.08-2.71.04-.21 2.22-5.55 2.64-3.41 1.38-1.45 4.87-1.23 1.84-.2 4.43-.4 1.41 0 1.51-.18 1.96-.85 1.86-.88.63-.34 2.57.17 2.75 1.03.46 1.15 1.14.51 5.42.14 1.26-.65.3-.2.31-.2.3-.2.14-.09 4.02-.21.44.11 2.2 1.71.11.21.13.27.22.44 1.52 1.33 1.3.8.35.2 1.81.43.67-.11 2.34-.55 2.66-.77 1.66-.48 4.25.92 5.58.91 6.15.46 1.29.54.25.16 1.87 1.04 4.28 1.09 1.17.26.12 0 4.09-.5 1-.05 13.83 2.42.49.38 1.65 1.12.54.03 1.53.1.44.03.88 0 1.48-.01 2.11-3.45 3.14-5.32.2-.25.15-.12.11-.08.74-.39-.47.01-.23 0-.23-.01-.22-.04-.12-.05-.11-.05-1.58-1.36-.09-.09-.07-.09-2.31-3.5-3.98-10.6 1.67-3.48.64-.44.23-.18.2-.18 1.19-1.35.53-.79.73-1.88.14-.45.21-.99 1.82-5.73.34-.68.21-.18 1.58-1.79.64-4.18.02-.35-.01-.54-.01-.73-.52-1.68-.07-.1-.95-1.11-.06-.06-2.37-1.03-.27-.12-.31-.08-.55-.09-.78-.13-.26-.05-.27-.06-.79-.23-3.2-1.55-.12-.07-.4-.28-.28-.21-.22-.19-.39-.38-2.15-2.4-.07-.07-.05-.09-.03-.08-.09-1.13.1-.7.1-.25.07-.3.02-.14 0-1.23-.03-.07-.04-.04-.06-.03-1.57-.64-.69-.28-1.3-.37-.85-.24-.42-.12-.1-.06-.05-.05-.05-.08-1.57-2.95-.2-.71-.32-2.1 0-.07.01-.16.01-.1.05-.16.97-2.81.31-.85 1.71-1.46.91-.7.4-.33.11-.12.53-.69.14-.18.04-.08.27-.94-.42-.19-.11-.06-1.48-1.09-.09-.08-.06-.08-.03-.06-.02-.11.01-.09.03-.04.14-.17.08-.1.18-.32.07-.14.03-.08.01-.06-.04-.06-.11-.14-.15-.17-.16-.2-2.43-2.78-2.81-.64-1.01-.03-.11-.01-.08-.03-.09-.05-.06-.04-.13-.1-.07-.06-.07-.08-.13-.22-.03-.08.28-1.39.26-1.71.01-.13.01-.11-.11-.8-.1-.48-.05-.21-.07-.25-.04-.08-.06-.06-.08-.07-4.25-4.09-.26-.24-.24-.16-3.27-1.65-2.62-1.35-3.9-1.69-2.45-.22-2.7.45-6.21-1.22-2.29-.74-5.57-1.43-2.67-.62-4.37-.74-4.52-2.83-3.08-4.5z" /><path d="m631.12 211.68l-1.74-.56-.07-.02-.29-.07-.94-.2-.06-.02-.1-.02-.2-.04-10.14-1.59-.32 0-.47.15-.08.03-.5.21-1.25-.52-1.39 1.31-.32.39-.53.67-.12.14-.26.21-.24.17-.45.24-.52.28-4.75 2.42-.74.18-2.46.41-2.54.46-2.47.56.08.93.09 1.08-2.84 1.25-2.65.47-1.47.2-1.41.13.14 5.71.08.83.54.74.57.6.99.78.72.44 4.96 1.6.97.27.4.09.86.19.11.03 2.72.57 3.86.57.89.06.56 0 1.4.01 1.24.01 2.87.14 1.13.06 2.06.1 1.34.07 6 .24.12-.8.34-1.33.7-1.59.07-.1.08-.1.78-.71.15-.12.91-.67.16-.15.08-.13 1.88-4.87 1.26-7.71.49-.41.08-.11.02-.05.05-.17.02-.13.13-1.79-.58-1.02z" /><path d="m673.13 129.75l-4.67.36-.66-.78-.26-.05-.76-.15-1.38.35-1.12.37-4.17.68-1.16-.4-1.38-.51-1.95-.21-9.13 1.05-1.86.88.45.63.16.22-2.15 5.83-.46.28-2.79 1.48-2.98.48-1.37.2-1.07.52-7.42 5.6-.11.91-.08 1.05 0 .77-2.99 2.52-1.1.48.75 1.63 2.74.62 1.44 1 .71.86 1.56 3.03-.34 4.19-.03.23-.81 1.78-7.16 8.81-2.42 1.45-.44 2.96 1.04 1.7.83 2.21.34 2.51-.5 2.33-.94.82-.84.61-.53.32-1.12.96-.19.23-.9 1.17.21 1.31.14.66.24 1.06.14.62.11.21.14.33.23.53.21.8.17.77-.13 2.49-.48.18-3.17.25-7.75.39-.11-.02-.16-.07-.09-.11-1.08-3.04-.12-.54-.58-.13-1.02 0-.64.01-.83.01-.52.06-.17.04-.1.03-.53.12-.12.08-.39.27-.11.08-.05.07-2.32 2.99-.31 1.04-.01.31.06.28.08.25 0 .28-.02.55-.03.14-.12.46-.08.16-6.9.21-7.11.1-2.42 5.33 3.93.8 2.07 2.58 2.88 4.79.74 1.48.18.59 1.41-.13 1.47-.2 2.65-.47 2.84-1.25-.09-1.08-.08-.93 2.47-.56 2.54-.46 2.46-.41.74-.18 4.75-2.42.52-.28.45-.24.24-.17.26-.21.12-.14.53-.67.32-.39 1.39-1.31 1.25.52.5-.21.08-.03.47-.15.32 0 10.14 1.59.2.04.1.02.06.02.94.2.29.07.07.02 1.74.56-.25-1.53-.75-5.13-.36-4.17-.45-8.71.54-6.43.13-.3.44-.86.1-.18.15-.19 1.7-1.83.2-.07.1-.02.11.01.31.17.37.28 3.43-.29.2-.97.7-1.62 1.2-2.24.56-1.01.55-.96.59-1 .28-.38 3.31-2.43 1.21.11 5.91.52.9-.81 1.18-1 3.52-2.78 2.48-.6 1.06-.25.45-.1.44-.1.5-.12.94-.22.11-.02.85-.27.38-.13.3-.09.29-.09 2.12-.73 5.89-5.27 2.67-3.94.09-.25.25-.62.44-1.12 1.4-2.98.66-.21.31-.09.31-.1 2.3-4.28-.38-.85-.54-1.28 0-.51 2.29-2.5-4.14-4.87-2.19-2.31-2.42-2.15-.07-.14-.71-1.43 0-.1.01-.12.01-.09.02-.14.01-.04z" /><path d="m630.12 205.02l.75 5.13.25 1.53.58 1.02-.13 1.79-.02.13-.05.17-.02.05-.08.11-.49.41-1.26 7.71-1.88 4.87-.08.13-.16.15-.91.67-.15.12-.78.71-.08.1-.07.1-.7 1.59-.34 1.33-.12.8 3.01-.82 7.63-3.73 3.88-2.09.24-.09.98-.05-2.2-4.33.07-.88 6.07.2 1.32-.45 6.33-2.01 6.56-2.29 8.22-2.87-.96-.38.77-1.89.76-1.56.88-1.47-9.67-.84-16.54-1.41-8.86-.84-2.75-.82z" /><path d="m428.07 228.75l-2.45-4.58-.65-2.82-2.54.63-6.37 2.19-4.63.99 1.56 8.26 1.77-.59 13.31-4.08z" /><path d="m444.87 215.23l-.81-.45-2.06 2.02-.04.09-.83.49-3.39 1.33-.96.3-3.77.97-.29.05-1.47.24-2.83.37-3.45.71.65 2.82 2.45 4.58 9.35-2.31-.22-1.41-.36-2.44 1.7-1.39.1-.08.84-.59.74-.49 2.26-1.52.09-.06 1.09-.87.41-.36 1.12-1.39.07-.12.09-.27-.48-.22z" /><path d="m412.99 233.42l-1.56-8.26-3.9.68-3.87.51-2.27.32-1.83.8-2.23.99-2.11.93-1.49.66-.32.15.44.69 1.63 5.08 4.3 2.16 1.52-.41.3-.11 4.75-1.75 1.25-.46.07.11 5.3-1.95.02-.14z" /><path d="m435.23 197.33l-.64-.4-.16-.1-.76-.38-.06-.03-.85-.38-1.15-.34-.34-.11-.21-.05-.72-.19-.78-.14-.92-.12-.08-.01-.12.01-.21 0-.79.08-.45.08-.47.09-.35.09-.09.02-.24.06-11.73 3.99 1.26.56 6.11.61 7.19 1.41 4.78-.24.38-1.19 1.4-3.32z" /><path d="m442.8 202.23l-.48-.08-1.22-.38-1.52-.77-.13-.07-.52-.38-.27-.2-2.05-1.76-1.38-1.26-1.4 3.32-.38 1.19-.37 5.4-.12 5.14 7.7.79.16.04.63.2.14.08 2.47 1.29.81.45.23-3.32-.24.17-.15.09-.51.31-1.42.48-1.38.12-.23 0-1.66-1.56-.05-.07-.05-.49 0-.05.01-.83 1.52-2.9.31-.25.11.06 1.61.88.58.32 1.21.04-1.32-1.31-.64-4.69z" /><path d="m444.06 214.78l-2.47-1.29-.14-.08-.63-.2-.16-.04-7.7-.79-4.95.35.86 3.55-.45 4.36 2.83-.37 1.47-.24.29-.05 3.77-.97.96-.3 3.39-1.33.83-.49.04-.09 2.06-2.02z" /><path d="m429.25 188.81l-2.93-.42-5.09-.74 4.61 7.86.24-.06.09-.02.35-.09.47-.09.45-.08.79-.08.21 0 .12-.01.08.01.92.12.78.14.72.19.21.05.34.11 1.15.34.85.38.06.03.76.38.16.1.64.4.14-.3 1.11-2.65-.92-.77-.94-.78-1.65-1.24-3.72-2.78z" /><path d="m432.96 212.38l.12-5.14.37-5.4-4.78.24-.98 5.3-.42 5.38.74-.03 4.95-.35z" /><path d="m405.49 181.1l-.2-.26-1.28-1.66-.38.13-5.6 1.88-.38.12-.83.28-2.39 1-2.31.97-.92 1.6-4.83 2.93-3.14 1.28-2.57.65-5.2.49 1.83 1.44 1.82 1.18 1.97 1.26 1.11.64.95.49.81.32.99.17 5.96.41 1.05.07 17.45 1.21.37 2.51 4.34-.71 11.73-3.99-4.61-7.86-4.83-.68-1.61-.23-3.35-.47-1.56-.28-1.12-.72-2.24-2.59-.3-.35-.82-.94-.1-.12.19-.17z" /><path d="m428.67 202.08l-7.19-1.41-.36 12.33 6.15-.24.42-5.38.98-5.3z" /><path d="m428.42 220.64l.45-4.36-.86-3.55-.74.03-6.15.24 1.31 8.98 2.54-.63 3.45-.71z" /><path d="m421.48 200.67l-6.11-.61-1.26-.56-4.34.71-.14 7.68.08 7.15 11.41-2.04.36-12.33z" /><path d="m422.43 221.98l-1.31-8.98-11.41 2.04-4.06.76 1.88 10.04 3.9-.68 4.63-.99 6.37-2.19z" /><path d="m409.71 215.04l-.08-7.15-11.59 2.29-.35 7.22 7.96-1.6 4.06-.76z" /><path d="m409.77 200.21l-.37-2.51-17.45-1.21-.22 1.98-.07.85.3.02 3.78.21.54.03 2.18 3.51-.41 6.94-.01.15 11.59-2.29.14-7.68z" /><path d="m375.46 190.51l-7.47-1.82.21 1.62-.39.32-.67.55-1.47.48-3.44.7-.71.01-.19-.01-.17-.01-.21-.03-.23-.06-.06.02-.3.14-.56.34-.45.3-3.31 2.47-.56.56-.02.06-.15 1.06.01.09.05.17.95 1.74 1.02 1.21.15.09.07.05.17.2.19.23.07.1.04.06.68 1.1.37.63.78 1.43.13.45.03.1.12.43.4 1.45.14.53.45 3.91 0 .16-.03.14-.83 2.16-.09.24-.12.27-.21.45-.04.08-.03.06-.31.38-.2.25-.08.1-.13.13-.93.9 2.07 2.14.32.52.2.06 5.67.59.61 1.86.32 1.81.2.25 1 .9.48.03 1.08.06 1.63.18 1.08.15 2.79.44 2.22.82 1.66.62.05.03-.12.53-.3 1.44-.58 2.68 9.49.03.48 4 4.87.72 2.13-.39-1.63-5.08-.44-.69.32-.15 1.49-.66 2.11-.93 2.23-.99 1.83-.8 2.27-.32 3.87-.51-1.88-10.04-7.96 1.6.35-7.22.01-.15.41-6.94-2.18-3.51-.54-.03-3.78-.21-.3-.02.07-.85.22-1.98-1.05-.07-5.96-.41-.99-.17-.81-.32-.95-.49-1.11-.64-1.97-1.26-1.82-1.18-1.83-1.44z" /><path d="m448.75 194.11l-1.43-.59-6.27-2.62-.84-.35-10.96-1.74 3.72 2.78 1.65 1.24.94.78.92.77-1.11 2.65-.14.3 1.38 1.26 2.05 1.76.27.2.52.38.13.07 1.52.77 1.22.38.48.08 3.21.6.05-.18 2.69-8.54z" /><path d="m478.09 237.11l-3.46-.2-1.87-.11-.3-.01-.2-.09-.28-.14-.42-.21-.06-.03-.34-.2-.2-.12-.61-.28-.21-.06-.05-.01-.38-.09-.96-.14-.11-.02-1.68-.16-1.22 2.83 2.75 6.83 5.52 1.51.85 1.39.6.93.08.05 6.09 1.86 2.25 1.23 1.45-.03-.19-1.02-.09-.33-.12-.4-.14-.47-.17-2.67.27-.71.24-.62 1.7-7.18-.07-.86-8.67-.47z" /><path d="m483.88 251.87l-2.25-1.23-6.09-1.86-.08-.05-.6-.93-.85-1.39-5.52-1.51.05.38 0 .09-.93 1.86-.28.4-.16.08-2.29.16-1.18.07-2.73-.06-.04 3.57 11.21.68 3.79.26 5.06 1.82 3.19-.59-.3-1.75z" /><path d="m484.18 253.62l-3.19.59-5.06-1.82-.17 1.77-.17 1.6-.09.75-.49 1.25-.19.28-.08.1 2.53 9.63-3.83 6.82-1.9 3.18-.71 1.1-.58.44-2.61 1.64-2.63 2.22-.67.8-3.98 5.31-4.19 5.25-4.6 5.55-.07.2 0 .43.07.36 2.29 4.55.87.12 1.93-.39.63-.16.59-.25 2.4-1.43.81-.67.1-.19.12-.24.13-.19 1.74-2.17 2.49-2.15 1.37-.52 3.45-1.1 1.25-.19.76-.07.38-.04 2.58-.71.67-.55 2.93-5.85.57-1.47 1.57-4.07.72-2.03.06-1.19.02-.26.03-.76-.03-1.59.64-3.27 1.19 1.37 1.48 1.5.28-.11.47-.2-.34-1.59-.49-1.85-.63-1.31-.16-.36-.32-.73-.17-.75-.13-.55-.55-3.88.26-1.22.17-.8.6-2.8.03-.14.09-.4.49-.74.12-.31.67-3.48-.01-.3-.03-1.18-.03-.89-1.45.11z" /><path d="m475.93 252.39l-3.79-.26-11.21-.68-.05 3.5.01.4 0 .17.49.12.32-.03.03 1.46-.06.04-.16.11-3.12-.03-.76-.01-6.4-.26-1.42-.15.88.77.69.64.86.8.64.63.03.03.02 1.5.02.81.4 1.9 1.08 2.81.17.22 1.04 1.2.56.2.61.3.65.96.71 1.11.32.52.19.59.45 1.59.84 3.15-.01.15-.01.09-2.04 3.87-.14.23-.24.32-1.14.93-.91.82-.09.13-.43.73-.09.16-.21 1.44-1.17 4.27-1.92 4.2-1.15 2.89-.47 2.01 1.62 2.33-.07-.36 0-.43.07-.2 4.6-5.55 4.19-5.25 3.98-5.31.67-.8 2.63-2.22 2.61-1.64.58-.44.71-1.1 1.9-3.18 3.83-6.82-2.53-9.63.08-.1.19-.28.49-1.25.09-.75.17-1.6.17-1.77z" /><path d="m445.89 249.38l-2.28-.03-.32 1.23-3.22 1.25-4.85-.17-.5-.43-3.64 2.05 1.02 1.06 9 6.09 5.23-2.03-.61-.34.09-4.67.04-1.94.01-.84.03-1.23z" /><path d="m466.89 235.23l-9.92-.24-5.12.46.49 3.39.24 1.96.14 1.19-.19.32-1.11 1.79-.47.74-.17.26-.06.05-.17-.02-.25-.05-.33-.07.07.67.23.96.44 1.37.07.17 5.72-2.32 2.24-.44 1.02-.17 1.2.94.01.17 0 .12 0 .92 0 .24 0 .24 2.73.06 1.18-.07 2.29-.16.16-.08.28-.4.93-1.86 0-.09-.05-.38-2.75-6.83 1.22-2.83-.07-.01z" /><path d="m449.88 235.59l-11.92-5.37-1.39 12.81 1.44.08 3.8.22 1 1.54.07.11.02.04 1.65 3.14-.94 1.19 2.28.03 4.89-1.2-.07-.17-.44-1.37-.23-.96-.07-.67.33.07.25.05.17.02.06-.05.17-.26.47-.74 1.11-1.79.19-.32-.14-1.19-.24-1.96-.49-3.39-1.97.14z" /><path d="m443.61 249.35l.94-1.19-1.65-3.14-.02-.04-.07-.11-1-1.54-3.8-.22-1.44-.08-.31.25-1.84 1.1-1.11.68-6.42 3.94-1.51.93-.48.31-.33.22-.81.62-3.74 2.94-.14.17-.18.24-1.43 1.82 5.24-.61 3.39-.37 1.95-.08.93-.49 1.3-1.42 3.64-2.05.5.43 4.85.17 3.22-1.25.32-1.23z" /><path d="m460.97 247.88l0-.24 0-.24 0-.92 0-.12-.01-.17-1.2-.94-1.02.17-2.24.44-5.72 2.32-4.89 1.2-.03 1.23-.01.84-.04 1.94-.09 4.67.61.34 3.48-1.63 1.42.15 6.4.26.76.01 3.12.03.16-.11.06-.04-.03-1.46-.32.03-.49-.12 0-.17-.01-.4.05-3.5.04-3.57z" /><path d="m433.39 259.97l-1.83-.14-.85-.01-.36.02-6.57.37-4.83 1.05-.82.19 2.88 5 2.93 0 .06.92.07.97 1.15 2.82 3.29 5.41.5 1.52-.01.68-.18 2.88 3.26 2.68.81 1.29.24 1.54-.14 1.51 1.19.82 5.14 2.18 1.42.15 1.28-1.21.83-.71.19-.78-.09-.86-.33-1.14-3.07-8.39-1.55-3.25-1.47-2.49-.56-.31-.67-.1-.99-.57-.97-.56 0-.9.01-.51.02-6.83.01-2.07.01-1.17z" /><path d="m450.42 296.73l1.15-2.89 1.92-4.2 1.17-4.27.21-1.44.09-.16.43-.73.09-.13.91-.82 1.14-.93.24-.32.14-.23 2.04-3.87.01-.09.01-.15-.84-3.15-.45-1.59-.19-.59-.32-.52-.71-1.11-.65-.96-.61-.3-.56-.2-1.04-1.2-.17-.22-1.08-2.81-.4-1.9-.02-.81-.02-1.5-.03-.03-.64-.63-.86-.8-.69-.64-.88-.77-3.48 1.63-5.23 2.03-7.71-.46-.01 1.17-.01 2.07-.02 6.83-.01.51 0 .9.97.56.99.57.67.1.56.31 1.47 2.49 1.55 3.25 3.07 8.39.33 1.14.09.86-.19.78-.83.71-.04 2.05.01.39.01.06.03.13.08.2.42.82 1.59 2.2.28.33.28.27.32.22.33.26.37.3.12.16 1.07 1.74.17.43.81-.34.65-1.48 1.9-1.62z" /><path d="m441.1 260.43l-9-6.09-1.02-1.06-1.3 1.42-.93.49-1.95.08-3.39.37-5.24.61-4.97 6.34 4.83-1.14.82-.19 4.83-1.05 6.57-.37.36-.02.85.01 1.83.14 7.71.46z" /><path d="m428.82 281.65l.18-2.88.01-.68-.5-1.52-3.29-5.41-1.15-2.82-.07-.97-.06-.92-2.93 0-2.88-5-4.83 1.14-2.93 4.5 1.03.58.33.05.31.13.46.22.34.18.24.14.27.18.09.07.44.4.17.16 3.64 5.27.87 1.73.83 1.34 1.68 1.5 4.57 2.45 1.87.37.79-.09.52-.12z" /><path d="m452.41 194.89l-3.66-.78-2.69 8.54-.05.18 11.82 2.24.02-.08 2.66-8.38-8.1-1.72z" /><path d="m461.49 193.29l-7.25-1.37-.27-.03-1.56 3 8.1 1.72-2.66 8.38-.02.08 9.41 1.75.05 1.45 6.04-.23 3.2.94.2.23 2.85.81 1.4.25 2.01.09.47.03 2-.33 3.06-.83.91-.38-5.12-2.45-1.93-1.63-.53-.54-2.06-2.7-.73-.99-.37-1.02-.25-.67-.22-.6-.57-5.18-1.36 2.29-.17.17-1.26 1.11-.28.24-.05.03-.49.33-1.59.9-1.08.52-.83.33-3.04-1.2-1.42-.63-1.66-2.13-2.93-1.74z" /><path d="m464.73 164.42l-14.6-.4-4.34-.13-.29.76-.34.9-.79 1.67-.31-.01.43 3.2.06.4.33 2.56-.02.14-1.99 6.86-.54 1.77-.08.27 2.55 2.81.66.72 5.43 1.23-.61-.62-.21-.44.55-1.73.3-.42 2.2-1.87 1.56-3.23 2.71-6.92 7.17-.73.75-.16-.34-3.87-.24-2.76z" /><path d="m473.6 186.35l-.35.96-.25-.09-.23-.08-.42-.15-.37-.14-.47-.21-.3-.14-.08-.03-.05-.02-.48-.22-.57-.26-3.14-1.51-.34-.18-.07-.04-.27-.21-.41-.48-.78-.97-5.2 1.78.35.69.39.79.3.6.9 1.75.23.46.53.97-.68 2.44-.01.04-.17.58-.17.61 2.93 1.74 1.66 2.13 1.42.63 3.04 1.2.83-.33 1.08-.52 1.59-.9.49-.33.05-.03.28-.24 1.26-1.11.17-.17 1.36-2.29-.14-2.9-3.91-3.82z" /><path d="m465.02 182.58l-.27-.51-.09-.18-.31-.6-.29-.72-.15-.44-.05-.13-.12-.48-.11-.81-.03-.39-.01-.14-.01-.05-.04-.61 0-.4.04-.48.11-.52.03-.09.07-.25.07-.25.04-.17.19-.73.35-1.52.05-.49.06-.78.01-.63-7.17.73-2.71 6.92-1.56 3.23-2.2 1.87-.3.42-.55 1.73.21.44.61.62-2.14 6.94 3.66.78 1.56-3 .27.03 7.25 1.37.17-.61.17-.58.01-.04.68-2.44-.53-.97-.23-.46-.9-1.75-.3-.6-.39-.79-.35-.69 5.2-1.78z" /><path d="m483.5 169.64l-1.28-.51-.11-.02-.52-.09-1.76.06-2.91.11-5.13.47-.64.14-.61.13-3.8.82-1.43.3-.75.16-.01.63-.06.78-.05.49-.35 1.52-.19.73-.04.17-.07.25-.07.25-.03.09-.11.52-.04.48 0 .4.04.61.01.05.01.14.03.39.11.81.12.48.05.13.15.44.29.72.31.6.09.18.27.51.78.97.41.48.27.21.07.04.34.18 3.14 1.51.57.26.48.22.05.02.08.03.3.14.47.21.37.14.42.15.23.08.25.09.35-.96-1.53-1.73.87-1.79 1.36-4.99 4.95-5.94.3-.27.74-.26 2.34-.94.87-.79z" /><path d="m484.72 150.19l-.39-.39-.24-.23-1.74 1.12-.09.06-.21.17-4.55 3.93-.98 1.93-.23.85 0 .16-.08.63-.04.22-.06.35-.08.38-.09.46-.14.53-.05.18-.21.65-.15.41-.24.53-.83.59-.69.34-1.1.51-.82.28-.76.26-2.23.28-.72.07-.24.02-.15.01-.4.03-.38 0-.35 0-.67 0-.29-.03-.79-.07.24 2.76.34 3.87 1.43-.3 3.8-.82.61-.13.64-.14 5.13-.47 2.91-.11 1.76-.06.52.09.11.02 1.28.51 4.34 2.58 8.45 3.71-.03-.12.25-1.83.12-.83.43-1.45.09-.29.11-.3.12-.33.82-2.26.22-.62.66-1.2.51-.73.36-.38.68-.71 1.45-1.04-4.05-5.83-1.23-1.76-1.19-1.7-4.72 0-2.71-2.23-1-.43-2.77.48.31-2.18z" /><path d="m496.29 175.93l-8.45-3.71-1.37 1.15-.55.46-1.05.91-1.61 1.38-.67.57-.17.19-.12.12-.05.12-.06.14-.05 1.16-.03.66-.02 3.51 0 .78 0 .04-.67 3.32-.63.4-.52.41-.04.38-.09 1.45 4.82 2.67 5.74.43 2.34.11.1.01 1.13.75.31.21.59.52.12.14 2.02-2.19 1.78-3.18-.27-.16-.04-.02-.49-.56-.37-.48-2.99-6.14-1.41-2.9.26-.24 1.5-1.33.21-.18.59-.52.28-.17-.07-.21z" /><path d="m487.84 172.22l-4.34-2.58-.87.79-2.34.94-.74.26-.3.27-4.95 5.94-1.36 4.99-.87 1.79 1.53 1.73 3.91 3.82 2.63-.8.09-1.45.04-.38.52-.41.63-.4.67-3.32 0-.04 0-.78.02-3.51.03-.66.05-1.16.06-.14.05-.12.12-.12.17-.19.67-.57 1.61-1.38 1.05-.91.55-.46 1.37-1.15z" /><path d="m506.59 183.55l-2.01-.88-2.3-1.8-.18-.14-.57-.45-.19-.15-3.93-3.15-1.05-.84-.28.17-.59.52-.21.18-1.5 1.33-.26.24 1.41 2.9 2.99 6.14.37.48.49.56.04.02.27.16.56-.66 3.56-2.36 3.38-2.27z" /><path d="m514.29 164.17l-8.94-2.16-3.27 1.83-1.45 1.04-.68.71-.36.38-.51.73-.66 1.2-.22.62-.82 2.26-.12.33-.11.3-.09.29-.43 1.45-.12.83-.25 1.83.03.12.07.21 1.05.84 3.93 3.15.19.15.57.45.18.14 2.3 1.8 2.01.88 5.05 2.24 3.33 1.85 1.31-1.06.06-.05 1.57-1.28.17-.13.06-.05.17-.79.07-.16.17-.28.52-.62.41-.48 1.06-.59-2.68-4.25-.43-.71-1.19-2.68-.49-1.14-.44-1.16-1.52-5.47.03-.95.23-1.08.09-.22.15-.32z" /><path d="m514.29 164.17l.61-1.37.28-.61.16-.33.19-.2.63-.72.87-.83.39-.36 1.99-2.35.8-2.13.32-.84.68-1.87.42-1.13.28-1.28-.01-.19-.08-1.11-.12-.71-.01-.04-.26-1.07-.07-.13-.26-1.33-.17-1.61-.05-.74-.13-5.98-.01-.87-.01-.61-.01-.45 0-.11-.01-.06-.08-.54-.01-.05-.09-.19-.25-.57-.11-.22-.97-1.31-.25-.31-.26-.31-.14-.15-5.65.47-1.75.23-2.16.29-8.26 4.67-2.66 1.51-7.5 4.85-.63.47-.24.18-.15.12-.26.2-.24.21-.31.26-.33.33-.63.62-.08.09-.13.16-.27.33-.49.62-.26.35-1.83 2.74-.31 2.18 2.77-.48 1 .43 2.71 2.23 4.72 0 1.19 1.7 1.23 1.76 4.05 5.83 3.27-1.83 8.94 2.16z" /><path d="m510.86 121.09l-.21-.26-.36-.85.04-.54.08-.7.22-.78.77-.53.38-.27.25-.2.27-.22.21-.16.18-.15.29-2.16.37-5.46.12-1.93-.44-.42-.76-.4-.69-.3-3.32-1.19-.43-1.96.09-1.43.55-4.11.92-3.21 1.48-1.82.24-.15.33-.21.37-.24.54-2.9-1.97-3.5-6.19-10.49-1.98-2.38-.83-.51-.32-.2-.71-.79.07-.63.21-1.48.82-1.11.48-.61.59-.79.14-.21-.03-1.12-.57-1.84-.72-.74-1.39-1.05-1.42-.25-1.84-2.2-.55-.71-.43-.6-.97-1.43-.14-.24-.03-.19.03-.44-.01-.18-.02-.13-.07-.12-.49-.81-.22-.3-.18-.2-3.34-3.12-.57-.43-.9-.67-4.06-2.4-.44-.26-.29-.16-.26-.12-1.15-.47-.23-.08-.33-.08-.3-.07-1.64-.22-1.18 3.4.78 2.82-.54 1.21-.53 1.63-.44 2.34-.2 6.46.03.19.04.25.07.43.12.65.04.2.69.9.71.64.41 1.57-.67 10.51-.42 1.95-2.19 3.69-.28.26-.24.2-.49.05-.34.25-1.36 1.02-.15 4.06.2.2 2.94 2.27 1.13.86.12.03 1.73.97 1.85 1.33.69.58.53.48.29.64.15.47.35 1.92.19 1.37.05.75-.14 1.86-2.15 2.32-1.04.84-3.74.83-.76-.03-.78-.04-.62-.37-.45-.27-2.49.6-5.63 4.45-2.88 2.97-4.63 2.31-4.13 1.35-.29-.04-.44-.06-.58-.08-.25.07-1.1.76-.25.18-.23.17-.46.35-.28.21-.47.36-.39.32-.69.6-.03.03-.52.68-.34.47-.16.52-.09.27-.09.35.16.25.41.65.06.37.05.38.01.4.01.56-.01.35-.09.54-.77 2.22-2.63.26-.24.01-.1 0-.04-.03-.1-.06-2.04-.15-.41.04-1.06.95-3.04 3.53-.29.74-.24.64-.01.14-.01.17-.12.07-.41.21-.2.1-1.53.69-1.65-.23-.77-.3-1.01-.39-.38-.16 1 .93-.62 1.7-.98.45-.16.1-.34.81-.38 1.11.2 1.48.19 1.16.49.72.25.35-.1.58-.01.07-1.58 7.46-.36 1.86-.29 3.45 1.13 4.44.15.56.02.07.68 2.3 1.16-.29 1.02-.21 1.07-.21 1.48.01-.24 2.81 8.65-.19.31.01.79-1.67.34-.9.29-.76 4.34.13 14.6.4.79.07.29.03.67 0 .35 0 .38 0 .4-.03.15-.01.24-.02.72-.07 2.23-.28.76-.26.82-.28 1.1-.51.69-.34.83-.59.24-.53.15-.41.21-.65.05-.18.14-.53.09-.46.08-.38.06-.35.04-.22.08-.63 0-.16.23-.85.98-1.93 4.55-3.93.21-.17.09-.06 1.74-1.12.24.23.39.39 1.83-2.74.26-.35.49-.62.27-.33.13-.16.08-.09.63-.62.33-.33.31-.26.24-.21.26-.2.15-.12.24-.18.63-.47 7.5-4.85 2.66-1.51 8.26-4.67 2.16-.29 1.75-.23 5.65-.47-1.83-1.08-.94-.83-.54-.58-3.44-6.51-.94-1.4z" /><path d="m408.55 126.47l-8.14-1.24-.02.13-.65 3.67-2.25 14.1-.04.35.21.29.33.48.93 1.32-1.11 1.51-.21.28-.04.04-.46.48-.87.78-.43.39-.57.52-2.31 2.1-.17.21-.23.56-.14.61.4 1.55.58 1.51 1.27 1.49 4.29 3.19 1.55.43.45.1 3.69.48 1.66-1.23.08-.07.22-.35-.03-.17-.05-.12-.24-.51-.22-.49-.21-.57-.15-.41-.01-.12.14-.22 1.56-1.52 3.36-3.1 2.09-2.03.02-.31-.01-.13-.04-.82-.01-.06-.02-.64.03-.43.14-.42.44-.41.43-.32 1.11-.76.28-.12-.57-1.88-2.43-4.55-2.59-2.37-.14 0-1.19.24-1.64.57-3.16-2.23 1.24-3.04.52-.67.25-.33 1.37-1.86.37-.51.52-.72.52-.72.11-.17.36-.55.41-1.15-.58-.06z" /><path d="m431.63 135.69l-1.41-1.01-.79-.34-1.43.56-.22.76-.05.59-.07.32-2.31 3.3-3.21 2.63-2.95 2.02-2.65.57-1.36 1.38-.28.12-1.11.76-.43.32-.44.41-.14.42-.03.43.02.64.01.06.04.82.01.13-.02.31-2.09 2.03-3.36 3.1-1.56 1.52-.14.22.01.12.15.41.21.57.22.49.24.51.05.12.03.17-.22.35-.08.07-1.66 1.23-3.69-.48-.45-.1-1.55-.43-4.29-3.19-1.27-1.49-.58-1.51-.4-1.55-.17-.81-.36-.44-2.64-2.12-1.23-.88-.27-.1-.46-.07-.8-.15-.15-.02-1.26-.34-.72-.26-1.63-4.04-1.1-2.83-.68-3.59-.04-.17-.1-.18-.83-.92-.25.02-.44.09-2.19 1.06-.51.5-.53.45-.96.71-.99.58-.27.15-.23-.2-.13-.17-.1-.11-.07-.48-.6-.03-.28-.01-.22.04-.25.05-3.12 1.14-1 .6-3.35 3.78-.16.19-.26.36-.06.13 0 .07.03.16.07.26.03.22 0 .54.01.58-.01.32-.05.13-.07.13-.09.12-.44.47-1.26 1.1-5.88 4.56-5.04 2.39-.17-.08-.06-.03-.11-.04-.18-.04-.13.02-.23.06-.14.06-3.46 1.38-.16.07-.25.14-.23.18-.41.35-.33.31-4.53 4.78-.17.3-2.71 4.89-.61 6.12-.43 8.05-.44 3.7 3.44-2.2.55-.33.58-.26.75-.22.79-.15 2.59-.32.82-.05 2.09-.07 2.73.44 3 .76 8.2 2.31 1.63.48 1.25.39 1.24.43.89.33.55.54.37.36 7.47 1.82 5.2-.49 2.57-.65 3.14-1.28 4.83-2.93.92-1.6 2.31-.97 2.39-1 .83-.28.38-.12 5.6-1.88.38-.13 1.28 1.66.2.26.2-.31.55-.52 1.72-1.5 6.35-1.53.47-.09 1.19-.01 1.48-.02.86-.04.26-.15.65-.38.42-.25.45-.32.46-.33.5-.41 1.14-.95 1.7-1.44.35-.29.35-.3.49-.44.33-.23.57-.41.64-.44.58-.38.07-.04.44-.26.5-.3.61-.31.86-.43.9-.43.57-.23.66-.23.8-.21.81-.17 1.1-.2.89-.15.24-2.81-1.48-.01-1.07.21-1.02.21-1.16.29-.68-2.3-.02-.07-.15-.56-1.13-4.44.29-3.45.36-1.86 1.58-7.46.01-.07.1-.58-.25-.35-.49-.72-.19-1.16-.2-1.48.38-1.11.34-.81.16-.1.98-.45.62-1.7-1-.93z" /><path d="m406.66 85.23l-2.64-1.12-.92-.4-.82-.44-.35-.23-.42-.35-.69-.6-1.92-1.86-.35-.42-1.24-1.72-.29-.43-.18-.41-.12-.44-.11-.5-.03-.27.03-.11.12-.15.07-.23.01-.24-.03-.34-.57-1.86-.12-.24-1.46-2.67-3.1-5.15-.17-.17-.18-.12-7.52-4.38-3.86-1.47-.25-.02-.31-.04-.31-.12-1.05-.43-.3-.14-2.62-1.29-2.95-.03.75 3.85.01.2-.03.15-.08.22-.09.18-.19.22-.5.42-.46.39-.28.16-.23.11-.37.1-.32.09-.16.04-.18.1-.2.15-.11.11-.12.17-.06.21-.04.26.01.21.02.13.49 1.16.18.31 1.55 3.95 1.63 4.23.05.19.83 5.42.29 3.13 2.15 1.66 2.21 1.42 1.66 2.75 1.16-.3 1.75-.16 1.73.06 3.29.73 2.76 1.41.49.26 4.41 8.23.19.36 1.38 6.99 1.81 7.16 3.33 1.46-1.03 2.74-.23.62-.68 4.51-.3 2.04-.07.59 8.14 1.24.44-.82.28-.6.06-.12.03-.09.13-.37.11-.4.07-.36.03-.13.03-.39.02-.29.02-.27.02-.2.03-.32.04-.37.06-.61 0-.06.15-1.5.11-.4.22-.55.02-.04.3-.47 1.08-1.24.37-.4.1-.11.55-.52.2-.23.07-.09.14-.31.03-.07.04-.12.1-.33.04-.32.06-.38.01-.29-.09-.38-.16-.36-.17-.2-.06-.08-.19-.2-.24-.27-.35-.31-.33-.21-.37-.22-.57-.3-.67-.26-.45-.16-.43-.15-.29-.18-.14-.13-.21-.47-.03-.3.14-.88.17-.96.08-.3.14-.33.17-.27.26-.36.12-.15 3.33-3.21.46-.56.13-.35.01-.45-.05-.29-.19-.58-.32-.62-.09-.13-.39-.55-.61-1.1-.2-.44-.04-.09-.62-1.88-.44-1.38-.29-1.16-.24-1.09.04-.43.31-.08 0-.16-.06-.4-.07-.3-.2-.46-1.92-3.16-1.73-2.17z" /><path d="m400.41 125.23l.07-.59.3-2.04.68-4.51.23-.62 1.03-2.74-3.33-1.46-1.81-7.16-1.38-6.99-.19-.36-4.41-8.23-.49-.26-2.76-1.41-3.29-.73-1.73-.06-1.75.16-1.16.3-.75 2.13-2.06 6.93-.1 1.64 0 .5.05.5.08.48.07.25.07.17.25.34 1.41 4.63.86 5.09.27 1.94.48 3.76-1.01 2.34-.37 1.38-.4 1.93-.04.25 12.09.89 3.04.2.48.04.36.03.99.14.24.06.02.11 3.94 1.1.02-.13z" /><path d="m400.39 125.36l-3.94-1.1-.02-.11-.24-.06-.99-.14-.36-.03-.48-.04-3.04-.2-12.09-.89.19.53.07.32.04.32.02.34-.7 2.03-.79 1.04-1.97 1.38-.88.66-1.93 1.94-.17.21-.05.22-.1 3.75 0 .32.31 2.88.07.48.1.11.13.17.23.2.27-.15.99-.58.96-.71.53-.45.51-.5 2.19-1.06.44-.09.25-.02.83.92.1.18.04.17.68 3.59 1.1 2.83 1.63 4.04.72.26 1.26.34.15.02.8.15.46.07.27.1 1.23.88 2.64 2.12.36.44.17.81.14-.61.23-.56.17-.21 2.31-2.1.57-.52.43-.39.87-.78.46-.48.04-.04.21-.28 1.11-1.51-.93-1.32-.33-.48-.21-.29.04-.35 2.25-14.1.65-3.67z" /><path d="m448.08 123.74l-.66.07-.49.05-.43.04-1.3-.85-.24-.16-.38-.26-.15-.15-.05-.06-1-3.67-.1-.44-.08-.36.09-.09.26-.24.21-.44.36-1.33.12-.56.75-3.46.04-1.34 0-3.2-5.92 1.36-1.07.77-.77.56-.47.27-.65.29-.72.05-.52.02-2.42-.24-9.95-1.25-1.34 6.51-.02.1-1.62 8.7-.12.64-.26 1.57-.12.69-.05.05-.63-.05-4.02-.33-2.72-.23-1.69-.17-.82-.07-.41 1.15-.36.55-.11.17-.52.72-.52.72-.37.51-1.37 1.86-.25.33-.52.67-1.24 3.04 3.16 2.23 1.64-.57 1.19-.24.14 0 2.59 2.37 2.43 4.55.57 1.88 1.36-1.38 2.65-.57 2.95-2.02 3.21-2.63 2.31-3.3.07-.32.05-.59.22-.76 1.43-.56.79.34 1.41 1.01.38.16 1.01.39.77.3 1.65.23 1.53-.69.2-.1.41-.21.12-.07.01-.17.01-.14.24-.64.29-.74 3.04-3.53 1.06-.95.41-.04 2.04.15.1.06.04.03.1 0 .24-.01 2.63-.26.77-2.22.09-.54.01-.35-.01-.56-.01-.4-.05-.38-.06-.37-.41-.65-.16-.25z" /><path d="m450.89 187.17l-5.43-1.23-.66-.72-2.55-2.81.08-.27.54-1.77 1.99-6.86.02-.14-.33-2.56-.06-.4-.43-3.2-8.65.19-.89.15-1.1.2-.81.17-.8.21-.66.23-.57.23-.9.43-.86.43-.61.31-.5.3-.44.26-.07.04-.58.38-.64.44-.57.41-.33.23-.49.44-.35.3-.35.29-1.7 1.44-1.14.95-.5.41-.46.33-.45.32-.42.25-.65.38-.26.15-.86.04-1.48.02-1.19.01-.47.09-6.35 1.53-1.72 1.5-.55.52-.2.31-.19.17.1.12.82.94.3.35 2.24 2.59 1.12.72 1.56.28 3.35.47 1.61.23 4.83.68 5.09.74 2.93.42 10.96 1.74.84.35 6.27 2.62 1.43.59 2.14-6.94z" /><path d="m422.54 109.12l.57-3.26-13.27.41-.12.15-.26.36-.17.27-.14.33-.08.3-.17.96-.14.88.03.3.21.47.14.13.29.18.43.15.45.16.67.26.57.3.37.22.33.21.35.31.24.27.19.2.06.08.17.2.16.36.09.38-.01.29-.06.38-.04.32-.1.33-.04.12-.03.07-.14.31-.07.09-.2.23-.55.52-.1.11-.37.4-1.08 1.24-.3.47-.02.04-.22.55-.11.4-.15 1.5 0 .06-.06.61-.04.37-.03.32-.02.2-.02.27-.02.29-.03.39-.03.13-.07.36-.11.4-.13.37-.03.09-.06.12-.28.6-.44.82.58.06.82.07 1.69.17 2.72.23 4.02.33.63.05.05-.05.12-.69.26-1.57.12-.64 1.62-8.7.02-.1 1.34-6.51z" /><path d="m448.08 123.74l.09-.35.09-.27.16-.52.34-.47.52-.68.03-.03.69-.6.39-.32.47-.36.28-.21.46-.35.23-.17.25-.18 1.1-.76.25-.07.58.08.44.06.29.04 4.13-1.35 4.63-2.31 2.88-2.97 5.63-4.45 2.49-.6.45.27.62.37.78.04.76.03 3.74-.83 1.04-.84 2.15-2.32.14-1.86-.05-.75-.19-1.37-.35-1.92-.15-.47-.29-.64-.53-.48-.69-.58-1.85-1.33-1.73-.97-.12-.03-1.13-.86-2.94-2.27-.2-.2.15-4.06 1.36-1.02.34-.25.49-.05.24-.2.28-.26 2.19-3.69.42-1.95.67-10.51-.41-1.57-.71-.64-.69-.9-.04-.2-.12-.65-.07-.43-.04-.25-.03-.19.2-6.46.44-2.34.53-1.63.54-1.21-.78-2.82-1.25.87-4.9 2.05-.16.06-.24.04-.41.03-.61-.02-.23 0-.52.02-.25.03-.3.08-.2.06-2.88.89-.14.06-1.42.73-.09.05-.03.05-.01.05 0 .07.02.13.07.56.05.21.03.23.01.12-.04.12-.63 1.5-.06.15-.14.12-3.11 1.9-.3.16-.43.17-.81.23-5.99 1.54-.13.02-2.21.27-1.26.14-2.52-.09-.27-.04-.61-.14-.28-.1-.42-.09-.27-.05-.91-.14-.51-.05-.75-.02-2.06-.03-.08 0-6.9.15-.2.01-.23.03-.15.04-6.92 3.27-.11.09-.41.36-.67.62-.21.25-.12.16-.07.12-.01.19-2.71 1.91-2.96.49-5.08 1.12-.42.13-.79.34-.77.35-.5.26-.89.6-.56 1.41-.12.44.01.36 0 .14.05.54.04.33.1.39.09.33.02.06.1.42.04.3.05 1.57-.02.32-.11.41-.1.12-.37.31-.43.33-.35.26-.35.25-.47.33-.62.43-.76.6-.23.2-.45.46.44 3.45-.21.39-.53.03-.15.01 1.73 2.17 1.92 3.16.2.46.07.3.06.4 0 .16-.31.08-.04.43.24 1.09.29 1.16.44 1.38.62 1.88.04.09.2.44.61 1.1.39.55.09.13.32.62.19.58.05.29-.01.45-.13.35-.46.56-3.33 3.21 13.27-.41-.57 3.26 9.95 1.25 2.42.24.52-.02.72-.05.65-.29.47-.27.77-.56 1.07-.77 5.92-1.36 0 3.2-.04 1.34-.75 3.46-.12.56-.36 1.33-.21.44-.26.24-.09.09.08.36.1.44 1 3.67.05.06.15.15.38.26.24.16 1.3.85.43-.04.49-.05.66-.07z" /><path d="m495.29 194.21l-.12-.14-.59-.52-.31-.21-1.13-.75-.1-.01-2.34-.11-5.74-.43-4.82-2.67-2.63.8.14 2.9.57 5.18.22.6.25.67.37 1.02.73.99 2.06 2.7.53.54 1.93 1.63.14-.49.46-.79 1.12-.6 1.42-.75 1.38-.72 2.46-2.26.69-1.87 3.31-4.71z" /><path d="m506.9 230.95l-1.44-.11-1.1 11.99-.06.94 4.2.26.46.03.72.04 1.16.07 1.39 1.57-.08 1.52 5.73 1.33.47 1.19.16.35.31.01.54-.25 1.62-1.21.1-.82-.23-1.06.13-1.08 1.02-1.74.18-.03-.28-.76-1.11-3.11-.24-.75-.13-3.09.04-.96.57-2.87.4-.57-8.6-.65-3.4.02-2.53-.26z" /><path d="m530.81 221.3l-3.49-1.18-.47-.27-.7-.26-.27-.06-.36-.03-.3-.02-.06 0-.52.01-7.09.99-3.95-.44.09 4.23-.01.31-.01 1.23 0 .11-.05.8-.01.04-.01.13-.01.1-.06.38-.28 1.71-.42 2.11 8.6.65 11.34-.1-1.06-5.11-.66-2.97-.32-1.86.08-.5z" /><path d="m501.33 219.06l-5.53-.53-.25.31.65.31 3.19.01.1.01.08.01.16.05.24.12.19.17.08.18.06.31-.01.27-.13.82-.07.18-.34.47-.07.09-.54.41-.1.09-.14.2-.01.16 0 .04.04.14.15.27.18.17.07.07.15.12 3 1.59.98.46 1.18.44.5.18.09.03.19.08.85.44.33.28.05.05.34.75.05.31.02.1-.1 1.62-.06 1.11 2.53.26 3.4-.02.42-2.11.28-1.71.06-.38.01-.1.01-.13.01-.04.05-.8 0-.11.01-1.23.01-.31-.09-4.23-11.29-.89-.98-.09z" /><path d="m537.01 247.51l.35-7.58 1.65-3.58-.32-.75-1.15-2.36-1.34-1.52-3.43.02-11.34.1-.4.57-.57 2.87-.04.96.13 3.09.24.75 1.11 3.11.28.76 2.18.16 1.58.33 2.89 1.95 2.41 2.51 2.14.21.33 0 .4-.04.07-.01 1.16-.28 1.67-1.27z" /><path d="m561.29 206.05l-6.01 1.07-2.7-1.15-2.45-1.69-2.22-.61-1.74.11-.29.02-6.09 2.25-.55.32-.71.43-7.08 4.18-.09.05-.09.06-.2.12-.39.11-.17.05-.09.02-.54.15-.3.09-.43.12-.32.09-.67.19-1.94.54-.95.26-.51.15-.44.21-.22.11-.7.67-2.48 2.74-.37.41-1.78 1.96-.4.45-.82.95 7.09-.99.52-.01.06 0 .3.02.36.03.27.06.7.26.47.27 3.49 1.18 1.15.32.37.11.26.01.5.03.44.03.74-.03.56-.02.84-.16.71-.2.42-.12.78-.32.09-.04.78-.44.75-.48 1.77-1.36.08-.07 1.78-1.27.04-.03 2.24-1.49.9 3.74.16.64.07.35.03.15.29 1.37.07.02 17.51-.25.83-1.06.3-.75-.23-.98-.71-.94-.05-.88.02-2.03.54-3.9-3.55-5.2z" /><path d="m564.14 221.79l-17.51.25-.07-.02-.29-1.37-.03-.15-.07-.35-.16-.64-.9-3.74-2.24 1.49-.04.03-1.78 1.27-.08.07-1.77 1.36-.75.48-.78.44-.09.04-.78.32-.42.12-.71.2-.84.16-.56.02-.74.03-.44-.03-.5-.03-.26-.01-.37-.11-1.15-.32-.08.5.32 1.86.66 2.97 1.06 5.11 3.43-.02 7.69 1.45 8.29 4.3 2.76 1.17 2.36.95 2.14.55.42.05 2.23.22-.65-1.44.71-.82.9-.65.75-.91-4.41-1.84-.59.04-.85.26-1.54-1.15.28-4.46 6.12-4.95 1.33-2.7z" /><path d="m562.09 240.41l-2.23-.22-.42-.05-2.14-.55-2.36-.95-2.76-1.17-8.29-4.3-7.69-1.45 1.34 1.52 1.15 2.36.32.75-1.65 3.58-.35 7.58 2.73-.44.84.71.23.42.11.27.87 2.61.24.7-.4 4.39-.09.78.77-.16 5.37-1.97.71-.39 4.09-2.74 6.54-5.51 2.49-4.89.58-.88z" /><path d="m494.81 230.36l-7.09-2.12-.21.19-.78 2.01-.09.23-.23 2.14-.1.98.45 3.79.07.86-1.7 7.18 2.06.54 6.18-.18.21-1.16.13-1.73 1.1-12.73z" /><path d="m505.46 230.84l-10.65-.48-1.1 12.73 5.11.31 5.48.37.06-.94 1.1-11.99z" /><path d="m506.9 230.95l.06-1.11.1-1.62-.02-.1-.05-.31-.34-.75-.05-.05-.33-.28-.85-.44-.19-.08-.09-.03-.5-.18-1.18-.44-.98-.46-3-1.59-.15-.12-.07-.07-.18-.17-.15-.27-.04-.14 0-.04.01-.16.14-.2.1-.09.54-.41.07-.09.34-.47.07-.18.13-.82.01-.27-.06-.31-.08-.18-.19-.17-.24-.12-.16-.05-.08-.01-.1-.01-3.19-.01-.65-.31-2.01 3.57-5.13 5.24-.69.59 7.09 2.12 10.65.48 1.44.11z" /><path d="m537.01 247.51l-1.67 1.27-1.16.28-.07.01-.4.04-.33 0-2.14-.21-2.41-2.51-2.89-1.95-1.58-.33-2.18-.16-.18.03-1.02 1.74-.13 1.08.23 1.06-.1.82-1.62 1.21-.54.25-.31-.01-.16-.35-.47-1.19-.45 1.88-2.64 4.29-.5 1.73.05.26.02.08.15.46.19.53.06.98-.17.63-.83.91 3.33-.11.52 3.61-.04.57-.01.38.09.14.36.34 2.25 1.81.33.23 2.1-.18 1.16-.83 1.6-.74.22-.1.31-.05.31-.01.34.08 1.32.94 3.03 2.3 1.35 1.95-.05.57.04.48.11.57.24.44.31.29 3.67-.65.98-.96.96-1.9.06-.44-.24-.71 3.06-2.8.13-.1 1.54-1.19-.6-.75-1.48-5.31.48-1.26.09-.78.4-4.39-.24-.7-.87-2.61-.11-.27-.23-.42-.84-.71-2.73.44z" /><path d="m504.3 243.77l-5.48-.37-.09 2.98-.07 11.99 10.9.8 2.84.97 1.36.2.83-.91.17-.63-.06-.98-.19-.53-.15-.46-.02-.08-.05-.26.5-1.73 2.64-4.29.45-1.88-5.73-1.33.08-1.52-1.39-1.57-1.16-.07-.72-.04-.46-.03-4.2-.26z" /><path d="m498.82 243.4l-5.11-.31-.13 1.73-.21 1.16-6.18.18-2.06-.54-.24.62-.27.71.17 2.67.14.47.12.4.09.33.19 1.02-1.45.03.3 1.75 1.45-.11.03.89.03 1.18.01.3-.67 3.48-.12.31-.49.74 7.5-.1.09-1.26.06-.54.06-.52 3.29.22 3.24.16.07-11.99.09-2.98z" /><path d="m498.66 258.37l-3.24-.16-3.29-.22-.06.52-.06.54-.09 1.26-7.5.1-.09.4-.03.14-.6 2.8-.17.8-.26 1.22.55 3.88.13.55.17.75.32.73.16.36.63 1.31.49 1.85.34 1.59-.47.2-.28.11 1.48 3.39 2.17-.25 2.35-.76 3.12-.32 4.21-5.34 0-1.35.02-12.17 0-1.93z" /><path d="m485.31 277.1l-1.48-1.5-1.19-1.37-.64 3.27.03 1.59-.03.76-.02.26-.06 1.19-.72 2.03-1.57 4.07-.57 1.47-2.93 5.85-.67.55-2.58.71-.38.04-.76.07-1.25.19-3.45 1.1-1.37.52-2.49 2.15-1.74 2.17-.13.19-.12.24 5.5 3.04 1.93.33 7.98 1.23 10.19 2.18 10.7 1.21.27.02.17 0 8.8-1.43 1.24-1.13.09-.51.2-.33.34-.39 1.77-1.28 2.59.83.22.09 6.25 1.12.86-.2.65-.08.61-.03.57-.02 2.98.38.37.06.66.17.08.03-.02-4.11-5.01-3.83-.29-.22-2.32-1.66-6.45-4.03-2.02-.62-1.71-.75-1.26-.63-.41-.21-.14-.14-.13-.31.16-.19-.02-.21-1.8-3.06-.51-.67-1.43-1.36-.97-.85-.31-.26-3.41-2.07-.6-.35-.16-.06-2.71-.68-3.38-2.19-2.35.76-2.17.25-1.48-3.39z" /><path d="m509.56 259.17l-10.9-.8 0 1.93-.02 12.17 0 1.35-4.21 5.34-3.12.32 3.38 2.19 2.71.68.16.06.6.35 3.41 2.07.31.26.97.85 1.43 1.36.51.67 1.8 3.06.02.21-.16.19.13.31.14.14.41.21 1.26.63 1.71.75 1.48-2.89.5-2.18.01-.95-1.77-.76-.68-.44.56-2.47.04-.13 1.8-4.21.6-.96.43-.61.38-.36.09-.02.62-.43.64-1.1.02-.31-.05-.19-1.05-2.2-.31-.39-4.92.4-.03-.15.21-2.93.62-7.14.27-3.88z" /><path d="m513.76 260.34l-1.36-.2-2.84-.97-.27 3.88-.62 7.14-.21 2.93.03.15 4.92-.4.31.39 1.05 2.2.05.19-.02.31-.64 1.1-.62.43 7.4 2.87.81.65.43.3 3.43 1.28.52.15.47.11 2.47 1.49 2.73 1.84 4.13-3.1 4.26-1.12 5.02-2.05 1.96-.85 1.13-.19 1.61.18 2.69.36-.29-.3-1.77-1.89.07-.87.41-.49.38-.71.17-3.05-1.4-2.57-1.57.29-1.49-1.62-.51-.63-.45-.84-.33-1.38-.5-.95-.33-.22-1.54-.74-.31.83-1.54 1.19-.13.1-3.06 2.8.24.71-.06.44-.96 1.9-.98.96-3.67.65-.31-.29-.24-.44-.11-.57-.04-.48.05-.57-1.35-1.95-3.03-2.3-1.32-.94-.34-.08-.31.01-.31.05-.22.1-1.6.74-1.16.83-2.1.18-.33-.23-2.25-1.81-.36-.34-.09-.14.01-.38.04-.57-.52-3.61-3.33.11z" /><path d="m531.8 286.18l-2.73-1.84-2.47-1.49-.47-.11-.52-.15-3.43-1.28-.43-.3-.81-.65-7.4-2.87-.09.02-.38.36-.43.61-.6.96-1.8 4.21-.04.13-.56 2.47.68.44 1.77.76-.01.95-.5 2.18-1.48 2.89 2.02.62 6.45 4.03 2.32 1.66.29.22 5.01 3.83.07.03 1.16.67.37.14 1.21-1.42 1.4-1.73-1.51-3.87.11-4.44-1.44-3.58-.33-2.26 4.57-1.19z" /><path d="m552.6 279.41l-2.69-.36-1.61-.18-1.13.19-1.96.85-5.02 2.05-4.26 1.12-4.13 3.1 3.7 2.42 4.22 3.99.54.48.08.06 1.21.43.27.07 1.46.69 1.63.71.79.04.08.02 1.31.23.41.67.17 1.99.64 3.11.96 3.89.51 2.68-.22 1.22-1.43 3.26-.32.45 1.26 2.43.14.27.42.58.22.25.21.22.31.26.2.15.4.26.13.05 6.08 1.5 2.24.37.96-.16.38-.21.13-.04.23-.06.65-.06 1.58-.08.11 0 .16 0 .23.02 2.79.59.3.06 3.45.85 1.32.42.76.25.13.05 5.89 2.19 3.74.27.12.04.24.08 2.33 1.34.4.29.27.2.11.13.04.09 1.46-2.26.06-.43.31-3.03-.01-.58-.94-4.79-.32-1.19-2.76.06-4.54-1.49-2.8-4.62.16-1.9.91-1.66 2.85-7.75.08-.35-.45-1.05-.7-.58-1.61-1.34-1.83-.84-.74-.3-1.01-.39-.56-.13-2.49-.54-3.86-.77-2.47-.32-3.96-.5-2.21-.11-.46.04-.92.19-1.66-1.39-.26-.33-.32-.78-.01-.62.02-.7.07-1.03-.03-.68-.01-.19-.13-.65-.41-1.78-.72-.58-.87-.42z" /><path d="m547.81 312.59l.32-.45 1.43-3.26.22-1.22-.51-2.68-.96-3.89-.64-3.11-.17-1.99-.41-.67-1.31-.23-.08-.02-.79-.04-1.63-.71-1.46-.69-.27-.07-1.21-.43-.08-.06-.54-.48-4.22-3.99-3.7-2.42-4.57 1.19.33 2.26 1.44 3.58-.11 4.44 1.51 3.87-1.4 1.73-1.21 1.42-.37-.14-1.16-.67-.07-.03.02 4.11.29.11 1.95 1.04.68.41.27.26.85.9.15.29.65 1.05 1.33 1.31.13.11.12.06.1.03 2.29.31.07.01 5-.38.55-.04.62-.1.33-.08.31-.11.52-.21.59-.31 1.26-.66.24-.15.22-.11.2-.05.18-.01.19.01.25.07 2.26.89z" /><path d="m652.13 265.9l-13.91-3.2-.31-.08-.14-.03-.93-.27-.07-.02-.88-.35-1.47-.59-.98-.41-.09-.05-.21-.13-.27-.16-.35-.22-.48-.29-.2-.13-.16-.07-1.1-.55-.11-.05-.98-.43-.33-.15-4.99-1.28-.54-.13-.15.89-.12 4.43.87.01-.01 1.51 0 1.6-.08 1.52-.04.54-.03.35-.97 1.6-1.27 3.71-.57 6.07-2.4 5.23-3.86 1.87-.35.17-.37 2.8-.44 1.52-.44 1.08-2.22 3.34-3.24 2.25-2.57 1.34-1.62-.17-2.39.25-2.51.44-.67 1.21 1.07 1.65.02.04.25.52-.12.29-4.01 3.91-.44.42-3.47 3.07-5.18 2.14.32 1.19.94 4.79.01.58-.31 3.03-.06.43-1.46 2.26.04.77.06.07.04.06.26.19.52.37.25.14.29.17.27.09.21.01.12 0 4.08 2.83 1.61 1.37 2.12-1 6.95-2.42.26-.08.1-.12 2.16-3.71.09-.23.37-.47.4-.37.26-.14 1.98-.92.28-.1.27-.05 1.61-.07.09 0 .11.04.05.06.22.35.27.72.06.23.12.15.63.64.13.11 1.71 1.1.2.09.25.07.34.03.27-.03 2.9-1.08.87-.33.14-.13.05-.14 0-.24-.02-.86.06-.72.07-.1 3.11-2.55.21-.17 9.41-7.42 1.23-.89.1-.07.41-.29.12-.08.44-.3.1-.07.26-.15.22-.1.07-.02.26-.06 3.61-.65.18-.01.11.01.14.03.1.02.32.09.11.03.08.02.1 0 .06-.01.24-.04 1.89-.47.14-.04.3-.12 1.87-1.18-2.44-3.73-.07-.16-1.13-3.13-.92-2.54-.87-2.86-.44-2.15-.01-.1-.03-.18-.06-.23-.17-.42-.1-.24-.06-.1-.05-.06-.08-.09-.08-.08-.11-.1-1.77-1.59-.12-.1-.09-.07-.18-.14-.15-.1-1.33-.82-.22-.12-.1-.05-.08-.06-.13-.1-.17-.15-.22-.23-.02-.03-.15-.22-.11-.18-.12-.21-1.17-2.17-.46-2.14-.03-.42 0-.21.12-1.96.04-.34.09-.52.06-.23.06-.18.06-.14.06-.1 1.3-1.87 1.54-1.53 1.45-1.39 1.02-.76 2.45-2.23 3.44-3.01 2.28-1.68.39-.18.6-.28.11-.01 2.24-.23 4.01.77z" /><path d="m589.97 220.53l-.18-.59-.74-1.48-2.88-4.79-2.07-2.58-3.93-.8-7.03.39-.23.05-2.83.59-.05.01-3.78.57-.36-.06-1.05-.59-.54 3.9-.02 2.03.05.88.71.94.23.98-.3.75-.83 1.06-1.33 2.7-6.12 4.95-.28 4.46 1.54 1.15.85-.26.59-.04 4.41 1.84-.75.91-.9.65-.71.82.65 1.44-.58.88-2.49 4.89-6.54 5.51-4.09 2.74-.71.39-5.37 1.97-.77.16-.48 1.26 1.48 5.31.6.75.31-.83 1.54.74.33.22.5.95.33 1.38.45.84.51.63 1.49 1.62 1.57-.29 1.4 2.57-.17 3.05-.38.71-.41.49-.07.87 1.77 1.89.29.3.87.42.72.58.41 1.78.13.65.01.19.03.68-.07 1.03-.02.7.01.62.32.78.26.33 1.66 1.39.92-.19.46-.04 2.21.11 3.96.5 2.47.32 3.86.77 2.49.54.56.13 1.01.39.74.3 1.83.84 1.61 1.34.7.58.45 1.05-.08.35-2.85 7.75-.91 1.66-.16 1.9 2.8 4.62 4.54 1.49 2.76-.06 5.18-2.14 3.47-3.07.44-.42 4.01-3.91.12-.29-.25-.52-.02-.04-1.07-1.65.67-1.21 2.51-.44 2.39-.25 1.62.17 2.57-1.34 3.24-2.25 2.22-3.34.44-1.08.44-1.52.37-2.8.35-.17 3.86-1.87 2.4-5.23.57-6.07 1.27-3.71.97-1.6.03-.35.04-.54.08-1.52 0-1.6.01-1.51-.87-.01.12-4.43.15-.89-.74-.17-5.56-1.28.52-1.5.58-.08.67-.1.7-.14.78-.46 1.01-.78.63-1.05 1.32-4.3-2.96-.58-.21-.11-3.69-2.57-.07-.16.13-.48.17-.62.21-.26 1.85-2.18 1.95-1.45.36-.98.26-1.01-1.51-1.35-1.65-2.3-1.34-.07-2.06-.1-1.13-.06-2.87-.14-1.24-.01-1.4-.01-.56 0-.89-.06-3.86-.57-2.72-.57-.11-.03-.86-.19-.4-.09-.97-.27-4.96-1.6-.72-.44-.99-.78-.57-.6-.54-.74-.08-.83-.14-5.71z" /><path d="m656.21 234.46l-3.06-4.35-4.64-1.91-.47-.17-.97-.33-.38-.11-1.75-.38-1.5-.28-.89-.05-1.98-.04-.45.02-.98.05-.24.09-3.88 2.09-7.63 3.73-3.01.82-6-.24 1.65 2.3 1.51 1.35-.26 1.01-.36.98-1.95 1.45-1.85 2.18-.21.26-.17.62-.13.48.07.16 3.69 2.57.21.11 2.96.58-1.32 4.3-.63 1.05-1.01.78-.78.46-.7.14-.67.1-.58.08-.52 1.5 5.56 1.28.74.17.54.13 4.99 1.28.33.15.98.43.11.05 1.1.55.16.07.2.13.48.29.35.22.27.16.21.13.09.05.98.41 1.47.59.88.35.07.02.93.27.14.03.31.08 13.91 3.2.54-.18 1.41-.48.65-.55.09-.29.02-.16.01-.12 0-.07-1.5-2.91-.13-1.09 0-1 1.93-4.82 1.14-1.22-.04-.96-.05-1.55-1.2-10.87-1.54-1.03-2.61-1.69-1.3-1.25 4.97-2.22 1.69 1.02z" /><path d="m421.81 242.13l-.68-.23-.59-.26-.46-.26-.46-.42-.46-.46-2.46-2.7-2.03-2.41.09-2.56-1.77.59-.02.14-5.3 1.95-.07-.11-1.25.46-4.75 1.75-.3.11-2.54 6.46.06.49.06.31.12.31.17.19.25.22 5.54 4.28 1.56.28.25.02.99.06.3.01.22-.01.24-.02 3.03-1.07 9.19-3.93 1.07-3.19z" /><path d="m400.77 263.17l0-.22.02-.98.01-.53.08-3.91-1.38-.03-.09 0-1.47-.02-2.85-.03 0-1.03.03-2.31-12.62-.09-.02.77-.02.69-.01.68-.01.2-.97-.01-3.28-.05-3.21-.04-4.78.74.13.56.15.68.02.14.12.69.14.89.04.66-.08.74-.04.28-.09.74-.28.91 1.45-.09.22-.01 5.01-.16 6.76-.21 2.21.04 4.01.08.22.01 10.58.22z" /><path d="m398.76 244.18l2.54-6.46-1.52.41-3.32 1.49-9.09 3.64-3.17 1.1-5.55.53-3.93 1.13.01 1.14 0 .1.01 1.63.01.49 2.8 3.18.46.28.63.37 1.76.74 2.1.07 12.62.09-.48-3.02-.04-.4.02-.15.01-.06.09-.24 1.26-1.89.5-.75.19-.29 1.35-2.02.34-.51.25-.37.15-.23z" /><path d="m395.48 235.97l-2.13.39-4.87-.72-.48-4-9.49-.03-.01.5-.01.98-.01.25-.02 1.45 0 .05.55.01.35.01.26.01 0 .04-.03 1.69 0 .05-.05 1.71-.04 1.76-.85 4.77 5.55-.53 3.17-1.1 9.09-3.64 3.32-1.49-4.3-2.16z" /><path d="m361.99 245.04l-3.55-1.1-4.33-.02-1.57 1.36-5.68 5.33-2.19 3.57-3.59-.86.08 12.16 7.5-.7 12.3-.92 9.35-.57.28-.91.09-.74.04-.28.08-.74-.04-.66-.14-.89-.12-.69-.02-.14-.15-.68-.13-.56 4.78-.74 3.21.04 3.28.05.97.01.01-.2.01-.68.02-.69.02-.77-2.1-.07-1.76-.74-.63-.37-.46-.28-2.8-3.18-.01-.49-.01-1.63 0-.1-.01-1.14-4.04.72-.41.06-.44.06-3.08-.29-1.23-.31-3.53-1.22z" /><path d="m353.03 218.62l-4.02-.49-1.14-.26-1.98.29-2.48 1.67-.23.18-1.66 1.35-.23 7.31-.03 1.19-.01.63-.04 1.7-.01.1 0 .05-.05 2.58-.07 3.89-.05 2.5 0 1.72 0 .84.01 1.7.01 2.01 0 1 .03 4.74 3.59.86 2.19-3.57 5.68-5.33 1.57-1.36-.87-.75-.27-1.93-.14-1.05-.03-.41-.02-.39-.05-.76 0-.31.02-1.09.04-2.87.03-2.5 0-.08-1.56-.02.01-.61.04-2.56 0-.06 2.87-2.62.67-.07.91-.11-1.63-3.13-1.26-2.2.16-1.78z" /><path d="m328.96 224.04l-2.12-.07-3.89-.9-7.67-2.51-.42-.15-.36-.21-1.4-1.09-.13-.09-.49-.19-.53-.17-.39-.05-.39-.04-.49-.03-.48.01-5.08.51-.07.02-.24.11-.24.13-1.18.74-1.92 1.8-.27.29-.11.23-.61 1.35-.88 1.93-.13.26-.39.56-1.16.91-.17.1-.24.08-.58.05-.59.02-.79 0-.48-.02-.26.02-.23.01-.55.11-.78.17-.13.08-.23.25-1.16 2.75-1.59 8.63-1.24 10.38-.43 3.6-.1 1.45-.06 2.36.03 1.45.03 3.31-.04 3.86-.07 3.15 9.44 7.9 6.65-4.18 2.18-1.23.6-.33 1.21-.74.34-.25.85-.75-4.4-3.34 4.95.07 9.28-.02 6.81-.27 4.37-.17.01-.18-.05-3.54-.02-1.01-.19-15.23 0-4.15.07-3.3.15-6.95.01-.04-.8-3.84-.81-.81 0-.13.05-2.67z" /><path d="m382.07 271.47l-1.34 1.28-2.37 2.29-.66.65-1.07 1.06-.22.22-.2.19-.4.41-.29.24-.44.35-.71.46-.45.26-.4.14-.54-.57-2.79-2.93-1.95-2.04-1.21-1.2-1.55-1.53-.13-.11-.59-.51-1.7 1.66-2.19 2.14-.18.17-2.03 1.97-1.34 1.31-.8.78-6.58 6.41-1.83 1.78-.29.27 12.34 8.41.31-1.85.03-.13.01-.04.28-.42.94.57.78.47 1.31-.05 5.96-2.83 1.73-1.03 2.32-1.73.08-.1-2.04-2.36 11.05-4.03 5.26-1.17.98-.17.28-.18.12-.18.02-.31-.04-.43-.4-.86-1.91-3.62-3.89-3.96-1.15.73-.12.12z" /><path d="m382.07 271.47l-2.65.01-.04-2.44-.02-.87-.02-1.07-.01-.77-.01-.76-3.42.13-1.09.05 0 .74.01.27-1.45-.53-2.06-1.34.15-.95.3-.74-1.45.09-9.35.57-12.3.92-7.5.7-10.62.41-4.37.17-6.81.27-9.28.02-4.95-.07 4.4 3.34-.85.75-.34.25-1.21.74-.6.33-2.18 1.23-6.65 4.18.42.42.87 1.02.58.74.99 1.4.89 1.4.89 1.62.47.99.31 1.07.12.97-.04.71-.31 1.89-.32 1.32-.2.51 11.66.41 1.34.59 4.17 1.34.28-.15 1-.54.21-.11 1.14-.39.59-.16.53-.11.84-.08.68 0 1.11.1.65.08.36.04 2.18.35 1.56.37 2.24.84 1.4.53 3.94 1.5 9.57-9.15.29-.27 1.83-1.78 6.58-6.41.8-.78 1.34-1.31 2.03-1.97.18-.17 2.19-2.14 1.7-1.66.59.51.13.11 1.55 1.53 1.21 1.2 1.95 2.04 2.79 2.93.54.57.4-.14.45-.26.71-.46.44-.35.29-.24.4-.41.2-.19.22-.22 1.07-1.06.66-.65 2.37-2.29 1.34-1.28z" /><path d="m373.91 287.89l-.08.1-2.32 1.73-1.73 1.03-5.96 2.83-1.31.05-.78-.47-.94-.57-.28.42-.01.04-.03.13-.31 1.85-12.34-8.41-9.57 9.15-.2.25.75.47 1.12.67 2.62 1.52.16.09.71.38.8.23 1.73.41 1.57.48 1.31.4.34.24.44.76.13.26.23.47.02.04-.53.22-2.1.88-1.28.55-1.84.77-1.41.6-.88 1.99-.07.35-.02.08.14.2.19.16.28.1 4.72.88 3.39 1.72 0 .07.02.21 3.37 6.71.14.19 1.12 1.17.49.49 1.62 1.27 9.56 6.61.27-.04.29.01 1.34.19.54.11.18.18.2.84.38 2.13.07.91.05.18.12.24.77 1.47.28.19.14.05.22.08 6.02 1.93.3.02 6.55.07.19-.02.33-.14 3.22-1.59 2.05-.29.21-1.72-.07-1.31-.39-.96-.78-2.33-.3-.94.42-.85.71-2.65.43-3.79-1.21-1.22-.45-.26-4.77-2.69-.1-.05-.09-.04-1.36-.26-.82-.2-.92-.44-3.65-3.12-4.38-3.01-.77-.18-.23-.07-.35-.11-.05-.03-1.97-4.08.5-.25.57-.25.39-.15.19-.07.41-.12.37-.06.44-.04.09-.01.51-.04 1.69-.08 3.64-.15.32-3.9-4.05-3.53.45-1.91.28-.38.28-.13.34-.16.17-.07.24-.11.26-.12.97-.43-3.66-4.02z" /><path d="m395.47 283.14l-2.83.15-4.46-2.96-5.26 1.17-11.05 4.03 2.04 2.36 3.66 4.02 7.44-2.21 2.43 2.67 2.85 2.96 4.55 3.67.35-.16 1.36-.83.73-.44.16-.1 4.77-3.16-.08-.24-.17-.47-.03-.11-.15-.39-.23-.6-.15-.44-.09-.59.05-.55.01-.08.08-.3.21-.29.71-.63.94-.82.42-.36.75-.64.08-.08-5.97-3.59-2.01-1.21-.38 0-.11.02-.62.2z" /><path d="m394.84 299l-4.55-3.67-2.85-2.96-2.43-2.67-7.44 2.21-.97.43-.26.12-.24.11-.17.07-.34.16-.28.13-.28.38-.45 1.91 4.05 3.53-.32 3.9.32-.01.6-.03 1.35-.08 1.47-.07 1.21-.03.97.11.06.01.58.07.05.01.49.06.18.02 1.47.19.68.16.45.16.5.18.38.15.04.02.97.39.09.03.86.31 1.02.29 1 .12.57.03 1.42.03 3.71.01.1 0 1.68.01-5.69-5.79z" /><path d="m432.99 288.67l-1.25.47-.27.16-.9.59-1.65 1.68-1.39.98-2.92 1.21-4.83-.72-3.68-.92-1.58-.42-1.11-.64-2.01-1.14-.62-.34-.83-.32-.26-.04-1.8-.28-1.62.21-1.79-1.35-.75.64-.42.36-.94.82-.71.63-.21.29-.08.3-.01.08-.05.55.09.59.15.44.23.6.15.39.03.11.17.47.08.24-4.77 3.16-.16.1-.73.44-1.36.83-.35.16 5.69 5.79 2.16 2.52 2.55-.47-.04-.12-.01-.1.02-.12.08-.11.07-.07.25-.12.17-.06.22-.02 15.3-.46 10-.2.38.02 2.78.41 2.22.41 2.55 1.13 4.98-2.18 1.12-.76.97-1.96.76-2.36-.17-.43-1.07-1.74-.12-.16-.37-.3-.33-.26-.32-.22-.28-.27-.28-.33-1.59-2.2-.42-.82-.08-.2-.03-.13-.01-.06-.01-.39.04-2.05-1.28 1.21-1.42-.15-5.14-2.18-1.19-.82z" /><path d="m451.57 301.07l-1.62-2.33.47-2.01-1.9 1.62-.65 1.48-.81.34-.76 2.36-.97 1.96-1.12.76-4.98 2.18-2.55-1.13-2.22-.41-2.78-.41-.38-.02-10 .2-15.3.46-.22.02-.17.06-.25.12-.07.07-.08.11-.02.12.01.1.04.12-2.55.47-2.16-2.52-1.68-.01-.1 0-3.71-.01-1.42-.03-.57-.03-1-.12-1.02-.29-.86-.31-.09-.03-.97-.39-.04-.02-.38-.15-.5-.18-.45-.16-.68-.16-1.47-.19-.18-.02-.49-.06-.05-.01-.58-.07-.06-.01-.97-.11-1.21.03-1.47.07-1.35.08-.6.03-.32.01-3.64.15-1.69.08-.51.04-.09.01-.44.04-.37.06-.41.12-.19.07-.39.15-.57.25-.5.25 1.97 4.08.05.03.35.11.23.07.77.18 4.38 3.01 3.65 3.12.92.44.82.2 1.36.26.09.04.1.05 4.77 2.69.45.26 1.21 1.22-.43 3.79-.71 2.65-.42.85.3.94.78 2.33.39.96.07 1.31-.21 1.72.24.64.16.26.21.27.17.09 1.64.66.21.08 4.19 4.42.27.46 1.71 1.69 1.25 1.05.52.4.48.25.46.13.38.18 1.38.7.48.26.47.33.34.29.21.26.29.53 1.33 2.51.07.27.32 1.79-.03.26-.09.51 1.51 3.23 6.85-1.44 1.37-.42.14-.04 3.41-.44.89.04.55.19.12.04 1.01.38 1.34-.58.55-.25.26-.18 2.62-2.68 4.56-5.04-.08-1.86-.56-1.01-.33-.34-.47-.95-.09-.67.13-4.35-.84-5.52-.76-2.87-1.81-4.11 3.38-3.54 3.39.67 1.5.37.65.21 2.56.71 2.3.18 2.85-.47 9.48-4 1.3-1.26.21-.96.02-1.38-.64-5.88-.57-2.63-2.29-4.55z" /><path d="m428.82 281.65l-.52.12-.79.09-1.87-.37-4.57-2.45-1.68-1.5-.83-1.34-.87-1.73-3.64-5.27-.17-.16-.44-.4-.09-.07-.27-.18-.24-.14-.34-.18-.46-.22-.31-.13-.33-.05-1.03-.58-4.63 3.75-.66.76-.27.31-.83 1.02.21.12-.03.05-.27.35-2.01 2.36-4.42 5.09-1.99 2.24.62-.2.11-.02.38 0 2.01 1.21 5.97 3.59-.08.08 1.79 1.35 1.62-.21 1.8.28.26.04.83.32.62.34 2.01 1.14 1.11.64 1.58.42 3.68.92 4.83.72 2.92-1.21 1.39-.98 1.65-1.68.9-.59.27-.16 1.25-.47.14-1.51-.24-1.54-.81-1.29-3.26-2.68z" /><path d="m410.37 267.09l2.93-4.5-4.75.71-7.42-.12-.36-.01 0 1.59-.01 3.19-3.81-.06-.39-.01-1.33-.02-.36-.02-1.15 2.48-1.27 4.32-.55 3.42-1.22 1.84-.83.15-.69.11-.98.17 4.46 2.96 2.83-.15 1.99-2.24 4.42-5.09 2.01-2.36.27-.35.03-.05-.21-.12.83-1.02.27-.31.66-.76 4.63-3.75z" /><path d="m400.77 263.17l-10.58-.22-.22-.01-4.01-.08-2.21-.04-6.76.21-5.01.16-.22.01-.3.74-.15.95 2.06 1.34 1.45.53-.01-.27 0-.74 1.09-.05 3.42-.13.01.76.01.77.02 1.07.02.87.04 2.44 2.65-.01.12-.12 1.15-.73 3.89 3.96 1.91 3.62.4.86.04.43-.02.31-.12.18-.28.18.69-.11.83-.15 1.22-1.84.55-3.42 1.27-4.32 1.15-2.48.36.02 1.33.02.39.01 3.81.06.01-3.19 0-1.59z" /><path d="m378.51 231.61l.58-2.68.3-1.44.12-.53-.05-.03-1.66-.62-2.22-.82-2.79-.44-1.08-.15-1.63-.18-1.08-.06-.61.93-.23.43-.31.7-2.1 5.29-.97 2.52-.07.17-2.58 6.8-.11.37-.04.23-.1.52-.07.56.02.77.09.76.07.33 3.53 1.22 1.23.31 3.08.29.44-.06.41-.06 4.04-.72 3.93-1.13.85-4.77.04-1.76.05-1.71 0-.05.03-1.69 0-.04-.26-.01-.35-.01-.55-.01 0-.05.02-1.45.01-.25.01-.98.01-.5z" /><path d="m369 224.66l-.48-.03-1-.9-.2-.25-.32-1.81-.61-1.86-5.67-.59-.2-.06-.32-.52-2.07-2.14-5.1 2.12-.16 1.78 1.26 2.2 1.63 3.13-.91.11-.67.07-2.87 2.62 0 .06-.04 2.56-.01.61 1.56.02 0 .08-.03 2.5-.04 2.87-.02 1.09 0 .31.05.76.02.39.03.41.14 1.05.27 1.93.87.75 4.33.02 3.55 1.1-.07-.33-.09-.76-.02-.77.07-.56.1-.52.04-.23.11-.37 2.58-6.8.07-.17.97-2.52 2.1-5.29.31-.7.23-.43.61-.93z" /><path d="m341.08 253.32l-.03-4.74 0-1-.01-2.01-.01-1.7 0-.84 0-1.72.05-2.5.07-3.89.05-2.58 0-.05.01-.1.04-1.7.01-.63.03-1.19.23-7.31-1.13.02-3.85.3-.22.04-.26.11-1.34.73-.42.31-.08.11-.08.28-.04.18-.09.24-.18.29-.14.17-.1.09-.18.17-.2.14-.21.14-.15.08-.2.06-.18.02-.23.02-.14-.03-.26-.06-2.88-.73-.05 2.67 0 .13.81.81.8 3.84-.01.04-.15 6.95-.07 3.3 0 4.15.19 15.23.02 1.01.05 3.54-.01.18 10.62-.41-.08-12.16z" /><path d="m436.26 243.28l-1.62-1.77-1.42-1.56-3.68 1.07-.42.13-.81.73-1.55 1.5-2.66.03-2.29-1.28-1.07 3.19-9.19 3.93-3.03 1.07-.24.02-.22.01-.3-.01-.99-.06-.25-.02-1.56-.28-5.54-4.28-.25-.22-.17-.19-.12-.31-.06-.31-.06-.49-.15.23-.25.37-.34.51-1.35 2.02-.19.29-.5.75-1.26 1.89-.09.24-.01.06-.02.15.04.4.48 3.02-.03 2.31 0 1.03 2.85.03 1.47.02.09 0 1.38.03-.08 3.91-.01.53-.02.98 0 .22.36.01 7.42.12 4.75-.71 4.97-6.34 1.43-1.82.18-.24.14-.17 3.74-2.94.81-.62.33-.22.48-.31 1.51-.93 6.42-3.94 1.11-.68 1.84-1.1z" /><path d="m437.96 230.22l-.54-3.78-9.35 2.31-13.31 4.08-.09 2.56 2.03 2.41 2.46 2.7.46.46.46.42.46.26.59.26.68.23 2.29 1.28 2.66-.03 1.55-1.5.81-.73.42-.13 3.68-1.07 1.42 1.56 1.62 1.77.31-.25 1.39-12.81z" /><path d="m338.25 295.77l-3.94-1.5-1.4-.53-2.24-.84-1.56-.37-2.18-.35-.36-.04-.65-.08-1.11-.1-.68 0-.84.08-.53.11-.59.16-1.14.39-.21.11-1 .54-.28.15-4.17-1.34-1.34-.59-11.66-.41-.27.71-.58 1.04-1.52 2.66-.87 1.32-.7.83-.72.74-1.68 1.36-.58.42-.15.1-.23.17-1.34.87-1.17.68-1.96.92.98 1.28 2.31 7.12.33 1.31.06.28.88 4.11.78 3.59.47 2.18 1.07 4.92 2.69 6.96.23.32.35.23.3.13.16.03.14 0 .09 0 .07-.02 4.3 1.56.11.61 1.47 4.07.4.66.42.64.67.88 2.24 1.51 6.4 3.72.45.24.3.15.13.07 5.01 2.18.67.25.57.1 6.32 2.39 1.52 1.84.07.08 1.92 1.84.35.3 1.15 1 .14.1 2.82 1.84.19.11.31.14.1.03.08.02.17.02.18.02 1.6.02.34-.01.27-.02.38-.07.31-.04.21-.01.32.01.25.04.23.06 12.08 4.24 10.04 3.05.14.05.09.06.08.06.05.07.13.23.13.27.22.54.07.2.04.13.05.19.06.19.02.11.01.08.02.18 0 .07-.01.85-.04.18-.04.13-.02.09-.04.06-.19.25-.07.1-.06.09-.06.16-.04.14-.04.23 0 .16.05.14.07.14.08.15 1.31 2.09.03.05.07.07.08.05 1.96.75 1.41.3 1.09.54 1.59 1.12.06.05.06.08 1.33 1.85.03.07.04.14.02.1.02.09.03.48.89.46 2.58 1.15.09.02 1.54.25.11-.02.26-.15 1.85-1.05 7.8-4.01.11.02 1.02-.08.23-.05.18-.04.25-.08 2.51-.96.11-.06 8.19-4.43.18-.11.08-.1.06-.25.03-.16-.01-.5-.02-.2-.05-.06-.04-.07-.17-.14-.41-.26-.12-.1-1.08-1.26-.27-.4-.2-.39-.09-.25-.02-.21-.19-4.47-.01-.43.05-.37.07-.16.09-.14.15-.17 5.72-6.59 1.27-.67-1.51-3.23.09-.51.03-.26-.32-1.79-.07-.27-1.33-2.51-.29-.53-.21-.26-.34-.29-.47-.33-.48-.26-1.38-.7-.38-.18-.46-.13-.48-.25-.52-.4-1.25-1.05-1.71-1.69-.27-.46-4.19-4.42-.21-.08-1.64-.66-.17-.09-.21-.27-.16-.26-.24-.64-2.05.29-3.22 1.59-.33.14-.19.02-6.55-.07-.3-.02-6.02-1.93-.22-.08-.14-.05-.28-.19-.77-1.47-.12-.24-.05-.18-.07-.91-.38-2.13-.2-.84-.18-.18-.54-.11-1.34-.19-.29-.01-.27.04-9.56-6.61-1.62-1.27-.49-.49-1.12-1.17-.14-.19-3.37-6.71-.02-.21 0-.07-3.39-1.72-4.72-.88-.28-.1-.19-.16-.14-.2.02-.08.07-.35.88-1.99 1.41-.6 1.84-.77 1.28-.55 2.1-.88.53-.22-.02-.04-.23-.47-.13-.26-.44-.76-.34-.24-1.31-.4-1.57-.48-1.73-.41-.8-.23-.71-.38-.16-.09-2.62-1.52-1.12-.67-.75-.47.2-.25z" /><path d="m320.63 424.57l-.35-1.64-3.75-5.06-.09-.05-.68-.59-.27-.26-.14-.15-.4-.5-.14-.18-.1-.15-.39-.65-.06-.1-2.07-3.99-.01-.1.01-.07.04-.09.05-.1.05-.18.02-.26-.03-.95-.03-.15-.07-.2-.09-.2-.08-.12-.09-.07-1.72-1.31-.1-.05-1.78-.74-.1-.03-.16-.01-.28 0-.25.01-.16 0-.09 0-1.69-.84-.3-.16-.25-.15-.19-.14-.43-.42-.16-.16-.13-.17-.11-.21-.1-.34-.02-.21.01-.18 0-.13.12-.81.05-.38.13-.65.19-.84.1-.4.05-.17.1-.25.08-.15-.46-3.65-.65-4.05-.81-2.92-.05-.06-.07-.05-.13-.09-.57-.3-.19-.08-.3-.13-.1-.02-.14-.03-.32-.01-.15.02-.13.03-.14.06-.12.07-.14.14-.32.31-.11.09-.07.05-.26.08-.37.11-.39.08-.94.13-.12.01-.05.01-.25-.02-.2-.01-.21-.03-.34-.06-.24-.04-.51-.12-.25-.06-.19-.06-3.54-1.46-.03-.04-.43-1.06-.02-.08-.01-.14.03-.15.09-.41-.52-1.69-.77-1.91-1.99-2.86-.33-.01-.24-.02-.24-.08-1.24-.56-5.02-2.6-.29-.16-1.2-.91-.26-.26-.94-1.89-.67-1.41-.36-.7-.28-.17-7.57-4.41-4.99-2.9-.3-.15-.09-.04-7.2-2.57-.12-.03-.1-.01-.24 0-1.29.09-2.38.25-.09.02-.78.12-3.21.59-1.95.4-.18.01-.13-.01-.16-.04-.1-.06-4.74-4.78-.51-1.08-9.16-8.93-1.3-2.21-.04-.07-.14-.21-.04-.07-.11-.09-.15-.05-.4-.03-1.22.09-1.57-.39-.14-.05-.91-.72-.4-.41-.14-.24-.02-.16-.04-.43-.47-.99-1.36-2.81-.22-.38-.21-.27-.75-.71-.29-.28-.74-.56-1.17-.76-.29-.17-.06-.04-.55-.36-.63-.51-.35-.3-.2-.18-.05-.04-.5-.56-.3-.4-.33-.55-.2-.45-.08-.24-.07-.38-.04-.2.01-.88.01-.36.09-.45.08-.59.02-.56-.12-2.81-.04-.33-.11-.41-.18-.35-.26-.35-.22-.24-.64-.49-3.38-2.31-.42-.28-.47-.29-.34-.18-3.82-1.87-1.15-.55-1.82-.8-1.4-.57-2.74 2.57-.61.62-.53.56-.65.81-.54.83-.89 1.67-1.09 2.12-1.64 3.58-2.15 5.32-.9 2.53-.4 1.2-.31 1.09-1.23 2.67-.93 1.91-.55 1.1-.58 1.15-1.33 2.33-.07.11-.54.79-1.26 1.76-1.1 1.45-.28.35-.63.8-1.93 2.4-1.47 1.74-1.24 1.33-1.04 1.11-3.36 3.48-1.18 1.17-.32.33-.72.71-2.12 2.33-.57.7-.39.56-.61 1.1-.49 1.05-.3.81-.11.27-.28 1.2-.11 1.09.01.34.01.76.06 1.25.21 1.05.23 1.02.28.81.2.49.31.73 3.5 6.37.65 1.08 1.28 1.69 1.39 1.66.09.11.92 1.08.79.84.91.85 1.54.77.05.03.2.09.23.11 1.21.57 2.07.69 1.64.67.47.21.7.37 1.01.54 2.59 1.6 1.18.75 1.95 1.15.54.28 1.58.73 1.29.48 1.27.45 1.48.39 4.05.83 1.71.17 2.36.23.74.1.82.13.6.16.63.24 1.24.49 1.29.6 2.05 2.03.19.17.93.79.56.46.62.51 3.02 1.66 6.33 3.15 3.19 1.53.66.32.27.15.32.22.25.18.74.58.66.57.08.08 2.11 2.52.74.97.23.31.59 1.11.27.99.04.14.19.87.68 3.01.06.29.21 1.05.28 2 3.56.1.22.01 2.26.01 1.05-.08 1.58-.15 4.9.12 3.43-.45.14.05 3.13 2.12.18.13.28.21.12.1.14.22.04.06.08.18.17.37.52.94.05.08.31.42.13.17.18.22.41.44.5.46.48.42.58.45.61.44 1.85 1.29.57.35 5.65-4.06.63-.47.16-.11.53-.32 3.61-1.57.42-.15.2-.05.11 0 .17.05.15.06 1.34-.3 2.38-1.36 2.19-1.3 2.29-2.1 1.7-1.53.09-.07.11-.07.17-.1.14-.05 7.73-2.14 4.9-.87 7.23-2.59.16-.07 2.04-.82 4.31.83 1.23.58 4.49 1.55.35.1.69.17.19.01.12-.04 2.03-.96z" /><path d="m336.52 186.25l.59 1.74-.3.35-1.33 1.57-2.07 2.4-.4.42-.29.11-.04-.02-.11-.05-.09-.08-.23-.22-.49-.54-1.16-1.91-.41-.73-2.2-.42-2.3-.88-2.91-2.76-2.23-4.29-.39-.8-.05-.22.02-.22.07-.34.08-.31-.02-.25-.08-.33-.07-.24-.15-.15-3.06-2.1-.17-.07-1.97-.52-.25-.02-.43.04-.77.14-.22.08-4.82 2.57-.09.06-.03.22-.01.37.02.48-.03.43-.05.11-.03.08-.2.29-.06.01-3.27-1.39-.87-.42-.43-.28-.26-.23-.7-1.1-.25-.42-.07-.07-.22-.09-.52-.16-.86-.14-.07-.01-.52-.05-.1-.01-.25 0-.12.01-.11.04-.72.8-1.44 1.26-1.9 1.59-.16.06-.23.02-.31-.03-.4-.12-.4-.15-4.01-2.38-.95-.72-.13-.1-.18-.25-.54-.91-3.4-2.04-.08.17-.14.3-.1.12-.08.06-1.96 1.07-.31.13-.27.08-.35.08-.19.03-.41.03-.34 0-.2-.02-.26-.09-2.4-1-2.39-.48-2.43 2.56-.2.22-6.97 4.13-.07 0-1.06-.01-.13.01-1.32.46-3.68 2.7-1.79 1.37-.33.26-1.61 1.33-.63 1.02-.13.31-.35.37-2.57 2.46-1.31-1.11-.29-.32-1.36.25-6.54 1.85-2.21.84-.81 1.44-.28.35-.17.17-3.27 2.56-3.43 1.68-.19.08-.25.1-.13.03-.07 0-.14-.02-.13-.05-.22-.16-.61-.6-.26-.13-.19-.03-1-.16-.18 0-.17.02-.23.08-.14.08-.17.09-1.23.96-1.76 2.13-2.77 3.78-.5 1.07-.11.26-.32 1.45-.08 1.04-.5 2.99-.07.21-.12.3-.95.9-.35.3-.38.21-.09.02-.06.02-.26.06-.22.03-.48-.01-.19-.02-.32-.12-.54-.33-.7-.3-.26-.03-1.85-.14-.09 0-.93.35-.15.12-.16.24-.09.21-.29 1.88.4 3.48.12.53.1.32 1.23 3.46.72 3.78-.59.7-1.21 2.53-.14 1.31-.08.78-.35 5.11-.02.2.09.36.15.43.24.27 4.5 4.19 2.11.2 17.07 4.38 18.93 4.87 6.31 1.22 1.29.24.71.14 3.6.92.37.12 4.54 2.03.6.28.35.19.89.66 1.88 1.46 1.25.98 1.26 1.02 1.1.89 2.81 2.43 1.4 1.15 2.82 2.06 1.73 1.26.07-3.15.04-3.86-.03-3.31-.03-1.45.06-2.36.1-1.45.43-3.6 1.24-10.38 1.59-8.63 1.16-2.75.23-.25.13-.08.78-.17.55-.11.23-.01.26-.02.48.02.79 0 .59-.02.58-.05.24-.08.17-.1 1.16-.91.39-.56.13-.26.88-1.93.61-1.35.11-.23.27-.29 1.92-1.8 1.18-.74.24-.13.24-.11.07-.02 5.08-.51.48-.01.49.03.39.04.39.05.53.17.49.19.13.09 1.4 1.09.36.21.42.15 7.67 2.51 3.89.9 2.12.07 2.88.73.26.06.14.03.23-.02.18-.02.2-.06.15-.08.21-.14.2-.14.18-.17.1-.09.14-.17.18-.29.09-.24.04-.18.08-.28.08-.11.42-.31 1.34-.73.26-.11.22-.04 3.85-.3 1.13-.02 1.66-1.35.23-.18 2.48-1.67 1.98-.29 1.14.26 4.02.49 5.1-2.12.93-.9.13-.13.08-.1.2-.25.31-.38.03-.06.04-.08.21-.45.12-.27.09-.24.83-2.16.03-.14 0-.16-.45-3.91-.14-.53-.4-1.45-.12-.43-.03-.1-.13-.45-.78-1.43-.37-.63-.68-1.1-.04-.06-.07-.1-.19-.23-.17-.2-.07-.05-.15-.09-1.02-1.21-.95-1.74-.05-.17-.01-.09.15-1.06.02-.06.56-.56 3.31-2.47.45-.3.56-.34.3-.14.06-.02.23.06.21.03.17.01.19.01.71-.01 3.44-.7 1.47-.48.67-.55.39-.32-.21-1.62-.37-.36-.55-.54-.89-.33-1.24-.43-1.25-.39-1.63-.48-8.2-2.31-3-.76-2.73-.44-2.09.07-.82.05-2.59.32-.79.15-.75.22-.58.26-.55.33-3.44 2.2z" /><path d="m526.21 307.94l-.08-.03-.66-.17-.37-.06-2.98-.38-.57.02-.61.03-.65.08-.86.2-6.25-1.12-.22-.09-2.59-.83-1.77 1.28-.34.39-.2.33-.09.51-1.24 1.13-8.8 1.43-.17 0-.27-.02-10.7-1.21-10.19-2.18-7.98-1.23-1.93-.33-5.5-3.04-.1.19-.81.67-2.4 1.43-.59.25-.63.16-1.93.39-.87-.12.57 2.63.64 5.88-.02 1.38-.21.96-1.3 1.26-9.48 4-2.85.47-2.3-.18-2.56-.71-.65-.21-1.5-.37-3.39-.67-3.38 3.54 1.81 4.11.76 2.87.84 5.52-.13 4.35.09.67.47.95.33.34.56 1.01.08 1.86-4.56 5.04-2.62 2.68-.26.18-.55.25-1.34.58-1.01-.38-.12-.04-.55-.19-.89-.04-3.41.44-.14.04-1.37.42-6.85 1.44-1.27.67-5.72 6.59-.15.17-.09.14-.07.16-.05.37.01.43.19 4.47.02.21.09.25.2.39.27.4 1.08 1.26.12.1.41.26.17.14.04.07.05.06.02.2.01.5-.03.16-.06.25-.08.1-.18.11-8.19 4.43-.11.06-2.51.96-.25.08-.18.04-.23.05-1.02.08-.11-.02-7.8 4.01-1.85 1.05-.06 1.01.02.09 3.02 9 1.77 4.27 2.31 7.72.1.39-.01.22-.18.46-1.36 2.14-.06.07-.27-.08-.38-.13-.84-.41-.81-.27-2.18-.51-.53-.02-.45.09-4.59 1.4-.65.29-.18.12-1.9 2.66-4.08 5.85-.53.8-.14.41-.16.72.04.2-.47 7.62-.07.49-.03.12-.08.33-.18.43-.22.39-.3.43-.42.5-1.12 1.22-.11.1-2.33 1.53.34.35.13.2.1.14.76 1.63.08.21.06.15.08.33 0 .17-.27.38 1.22 1.65 1.72 1.32 1.55 1.05.23 0 .63-.02.54-.03.33-.08.79-.28 10.9-4 4.49-2.05 3.4-1.03 1.5-.16.21-.02.23-.03.34-.08.15-.05.2-.06.17-.08.17-.11.11-.09 1.33-1.63.84-1.36.12-.36.17-.39.23-.36.16-.18 1.48-1.01.5-.32 1.54-.96 5.6-3.39 4.15-1.62.13-.02.39.04 5.51-1.93 1.85-1.18.12-.11.73-1 1.74-2.52.07-.15.05-.31 0-.47.03-1.08.03-.43.68-2.19.23-.42.18-.23 1.13-.78.18-.12 2.44-.27.18 0 1.43 1.13.13.15.04.11.36.4.27.11 3.31 1.24.54.08.51-.02.26-.03.32-.13.76-.35 8.75-4.45 3.31-2.01.12-.01 2.36.37.22.05.26.23.63.62 1.69 1.93.59.72.71.91.12.19 2.15 2.01 4.5 3.38.15.02.28-.11 2.89-1.19.31-.22.12-.13 1.73-2.24.27-.37.31-.5.37-.67.05-.25 3.42-1.86.65.16 4.38.47.45-.04 2.79-.54.35-.07.37-.12 4.09-1.67 1.34-.65.56-.22 1-.11 1.94-.07.28-.01.18.03 2.65.73 1.6.01.35.07.83.17 2.08.6 3.52 1.18.09.04-.04 3.56-.04.1-.11.05-1.34.1-.38.08-.11.05-1.13 1.99 0 .09.04.13.21.38.54.99.33.46.18.42.07.34-.03.87-.11.19-.42.42-.49.39-.3.19-.3.14-.38.1-.53.09-.3.06-2.28 1.99-2.04 1.89-.07.13-.23 1.02-.05.29.02.21.12.23 3.72 3.51.14.13.14.1.17 0 .23-.01.67.18.42.14.14.08 1.3 1.15.21.19.28.38.23.3 1.04 1.61.15.28 1.04 2.59.05.18.11.55-.01.32-.03.21-.23.54-.1.15-.12.13-.12.08-1.01.7-1.21.9-.6.44-.13.1-.64.56-.3.29-.14.17-.11 5.28.02.14.1.14.1.11 2.6 2.7 3.79 3.74 3.06 2.27 1.71.76.97.41.76.1 1-.24.2-.06.92-.28.7-.25 5.69-2.68 2.2-1.33.47-.34.19-.06.49-.04.45.05.54.08.74.17 2.17.45 5.29 1.01.21 0 1.34-.19 1.2-.25.91-.23 4.87-1.33 3.78-1.72 6.04-5.36 5.68-3.36.33-.24.26-.22.34-.34.45-.54 1.9-2.69 2.19-1.79 3.44-1.81.62-.29.28-.13 3.39-.69.3 0 .3.09 5.21 1.61 4.29.62.3.02.22-.02.2-.08.18-.27.52-.94.37-.66.06-.19.03-.14.01-.16.03-.07.08-.1 1.37-.3 1.34-.28 1.67-.22.47-.03.39 0 1.42.1.17.02 1.75.3 5.84-.21.51-.03.38-.05.42-.09.32-.13.26-.14.07-.09.07-.08.04-.21-.15-1.13-.15-1.03-.1-.95-.17-2.01 0-.2.03-.09 3.04-2.66.5-.38.52-.33.24-.08.34-.08 1.69-.75 3.49-1.74.47-.27.62-.56.56-.6.83-1.51.33-.85-.06-.44-.93-4.35-.35-.34-.7-.48-.94-.49-.55-.32-.45-.35-.48-.47-.03-.27 1.02-2.84.2-.52.21-.22.24-.05 2.97-1.63 2.7-2.7.88-1.18-2.07-3.47-.45-1.43-.03-.6.01-.45.73-1.88 4.42-10.46-5.35-4.82-1.65-4.01.02-.06.41-1.32.38-2.1 0-.08-.02-.03-4.56-6.03-.03-.05-.05-.02-.15-.03-.11 0-.23.02-.45.13-.45.15-.49.15-.24.05-.35.03-.22-.01-.29-.06-.23-.06-.14-.11-.19-.19-.05-.14-.04-3.8.05-.39.06-.15.15-.34.25-.33.19-.19.39-.4.27-.31.07-.15.06-.22.03-.18.05-.39.01-.54-.01-.13-.19-2.4-.02-.2-.74-2.7-.08-.09-.45-.27-.29-.09-.19-.04-.15 0-.56.16-.17.03-.07-.01-.09-.06-.59-.62-4.04-6.01-.21-.35-.08-.25-.33-1.26-.14-.55-.18-.97.01-.17.06-.52.08-.71.14-.35.13-.27.46-.81.81-2.05.19-1.31-1.61-1.37-4.08-2.83-.12 0-.21-.01-.27-.09-.29-.17-.25-.14-.52-.37-.26-.19-.04-.06-.06-.07-.04-.77-.04-.09-.11-.13-.27-.2-.4-.29-2.33-1.34-.24-.08-.12-.04-3.74-.27-5.89-2.19-.13-.05-.76-.25-1.32-.42-3.45-.85-.3-.06-2.79-.59-.23-.02-.16 0-.11 0-1.58.08-.65.06-.23.06-.13.04-.38.21-.96.16-2.24-.37-6.08-1.5-.13-.05-.4-.26-.2-.15-.31-.26-.21-.22-.22-.25-.42-.58-.14-.27-1.26-2.43-2.26-.89-.25-.07-.19-.01-.18.01-.2.05-.22.11-.24.15-1.26.66-.59.31-.52.21-.31.11-.33.08-.62.1-.55.04-5 .38-.07-.01-2.29-.31-.1-.03-.12-.06-.13-.11-1.33-1.31-.65-1.05-.15-.29-.85-.9-.27-.26-.68-.41-1.95-1.04-.29-.11z" /><path d="m284.4 172.96l.25-1.37.02-.29 0-.17-.03-.21-.47-3.06-.5-3.22-.18-1.12-.04-.22-.08-.19-.1-.17-.44-.55 2.03-4.85.1-.01.93-.11.11-.03.08-.06 5.75-6.31.53-.76.11-.2.55-1.5.06-.21.02-.19-.03-.15-.47-3.3-.46-3.23-.15-1.55-.01-.14.02-.19.04-.17.3-.99 1.05-2.29.05-.12.08-.13.11-.12.11-.1.21-.12.22-.12.12-.08.79-.68.1-.09.09-.15.22-.71.39-1.35.58-2 .33-3.66-.18-1.37-.28-2.18-.81-2.31-9.98-3.53-6.18-.45-1.13.01-.88.19-.34.54-.4.65-1.06-.29-1.04-.41-.53-.27-.36-.23-2.53-1.91-.33-.25-.22-.27-.1-.18-.13-.32-.27-.93-.3-.48-.36-.43-.07-.06-1.75.08-1.43-1.03-.26-.18-.35-.16-.73-.2-.75-.17-.08.01-.01.04-.3 1.04-.32 1.9-.13 1.21-.02.41.01.25.03.09.07.15.14.56-.01.46-.9 3.71-.15.21-.25.22-.29.11-.18.07-2.48.87-.36.12-.65.14-.58.1-.19.03-.11.01-.57.02-.54-.04-.43-.05-.84-.11-1.77-.24-.91-.21-.12-.01-6.27.91-5.98 4.62-8.02.91-5.3 3.05-.47 1.02-.02.12.09.14.19.15.14.14.03.1-.06.12-.28.4-1.28.12-.13 0-.13-.03-.44-.15-.38-.15-1.37-.62-.75 1.91-.07.2-.01.19.01.1.09.37.3.87.07.22.04.33-.02.19-.02.05-.04.15-.09.2-1.05 2.04-.17.3-.1.13-.15.12-.12.06-2.79 1.12-.14.05-.11.02-.13.02-.14 0-.2-.03-.17-.04-3.05.74-.89.23-.05.03-.07.03.16 2.49-.26 2.4-.45 2.42-1.52 2.65-5.28 7.37-.05.06-.06.04-.25.16-.22.11-.22.08-.25.07-.21.05-.08.04-.08.07-.23.21-.11.13-.7.96-1.17 1.59-3.28 5.99-.17.36-.83 1.86-1.01 2.74-.29 1.9-.04.68-.07 2.05.15.81.03.17-.02.11-4.75 8.73-.52.62-.5.61-.16.13-.15.06-.07.03-.14.05-.25.06-.37.05-.14.03-.15.05-.82.52-1.35 1.04-.64.67-.5.54-.09.1-.82 1.19-.06.11-.3.76-.14.17-.14.12-.22.09-1.17.45-1.5.47-1.44.34-1.42.31-.8.16-.28.67-3.27 6.96-.18.36-.36.68-.22.41-.21.38-.38.61-.28.42-1.78 2.61-1.1 1.64-.17.25-.75 1.14-.3.52-.16.46-2.42 8.52-.02.1-.01.12 0 .09.01.13.14.96.5 3.25.23 1.45.37 1.84.43 1.73.57 1.97.51 1.57.83 2.31.56 1.27.61 1.27 1.91 3.35.68.24.8.28.87.26.66.14.68.1.66.06.89.07 2.23.09 2.45.1 1.17.03.58-.03.66-.22.24-.08 2.19-.52 2.46-.45 1.9-.15 1.86.03 2.93.15 2.38.12 1.65-.12 3.51-.48 1.4-.23.25-.04 1.77-.3 1.27-.22 1.94-.29 1.65-.14 1.89-.04 3.36.17-4.5-4.19-.24-.27-.15-.43-.09-.36.02-.2.35-5.11.08-.78.14-1.31 1.21-2.53.59-.7-.72-3.78-1.23-3.46-.1-.32-.12-.53-.4-3.48.29-1.88.09-.21.16-.24.15-.12.93-.35.09 0 1.85.14.26.03.7.3.54.33.32.12.19.02.48.01.22-.03.26-.06.06-.02.09-.02.38-.21.35-.3.95-.9.12-.3.07-.21.5-2.99.08-1.04.32-1.45.11-.26.5-1.07 2.77-3.78 1.76-2.13 1.23-.96.17-.09.14-.08.23-.08.17-.02.18 0 1 .16.19.03.26.13.61.6.22.16.13.05.14.02.07 0 .13-.03.25-.1.19-.08 3.43-1.68 3.27-2.56.17-.17.28-.35.81-1.44 2.21-.84 6.54-1.85 1.36-.25.29.32 1.31 1.11 2.57-2.46.35-.37.13-.31.63-1.02 1.61-1.33.33-.26 1.79-1.37 3.68-2.7 1.32-.46.13-.01 1.06.01.07 0 6.97-4.13.2-.22 2.43-2.56 2.39.48 2.4 1 .26.09.2.02.34 0 .41-.03.19-.03.35-.08.27-.08.31-.13 1.96-1.07.08-.06.1-.12.14-.3.08-.17z" /><path d="m381.3 383.9l-.26.15-.11.02-1.54-.25-.09-.02-2.58-1.15-.89-.46-.03-.48-.02-.09-.02-.1-.04-.14-.03-.07-1.33-1.85-.06-.08-.06-.05-1.59-1.12-1.09-.54-1.41-.3-1.96-.75-.08-.05-.07-.07-.03-.05-1.31-2.09-.08-.15-.07-.14-.05-.14 0-.16.04-.23.04-.14.06-.16.06-.09.07-.1.19-.25.04-.06.02-.09.04-.13.04-.18.01-.85 0-.07-.02-.18-.01-.08-.02-.11-.06-.19-.05-.19-.04-.13-.07-.2-.22-.54-.13-.27-.13-.23-.05-.07-.08-.06-.09-.06-.14-.05-10.04-3.05-12.08-4.24-.23-.06-.25-.04-.32-.01-.21.01-.31.04-.38.07-.27.02-.34.01-1.6-.02-.18-.02-.17-.02-.08-.02-.1-.03-.31-.14-.19-.11-2.82-1.84-.14-.1-1.15-1-.35-.3-1.92-1.84-.07-.08-1.52-1.84-6.32-2.39-.57-.1-.67-.25-5.01-2.18-.13-.07-.3-.15-.45-.24-6.4-3.72-2.24-1.51-.67-.88-.42-.64-.4-.66-1.47-4.07-.11-.61-4.3-1.56-.07.02-.09 0-.14 0-.16-.03-.3-.13-.35-.23-.23-.32-2.69-6.96-1.07-4.92-.47-2.18-.78-3.59-.88-4.11-.06-.28-.33-1.31-2.31-7.12-.98-1.28-1.74.88-1.28.39-1.49.32-1.25.14-.96-.01-1.21-.08-.92-.07-.47-.03-2.99-.32-6.48-.42-9.38-.54-1.04.03-.67.07-.49.08-.2.03-.91.2-2.16.46-1.61.25-1.72.2-3.29-.02-.55 0-5.84-.04-1.19-.06-.81-.07-5.32-.57-1.93-.21-2.46-.33-.68-.09-.94-.11-.87-.1-1.07-.08-.19-.01-2.07-.13-1.37-.08-1.47-.05-4.64-.14-.75.01-1.18.14-.64.23-.62.39-1.04.98-1.28 1.29-1.34 1.42-5.32 5.27-4.48 4.12 1.4.57 1.82.8 1.15.55 3.82 1.87.34.18.47.29.42.28 3.38 2.31.64.49.22.24.26.35.18.35.11.41.04.33.12 2.81-.02.56-.08.59-.09.45-.01.36-.01.88.04.2.07.38.08.24.2.45.33.55.3.4.5.56.05.04.2.18.35.3.63.51.55.36.06.04.29.17 1.17.76.74.56.29.28.75.71.21.27.22.38 1.36 2.81.47.99.04.43.02.16.14.24.4.41.91.72.14.05 1.57.39 1.22-.09.4.03.15.05.11.09.04.07.14.21.04.07 1.3 2.21 9.16 8.93.51 1.08 4.74 4.78.1.06.16.04.13.01.18-.01 1.95-.4 3.21-.59.78-.12.09-.02 2.38-.25 1.29-.09.24 0 .1.01.12.03 7.2 2.57.09.04.3.15 4.99 2.9 7.57 4.41.28.17.36.7.67 1.41.94 1.89.26.26 1.2.91.29.16 5.02 2.6 1.24.56.24.08.24.02.33.01 1.99 2.86.77 1.91.52 1.69-.09.41-.03.15.01.14.02.08.43 1.06.03.04 3.54 1.46.19.06.25.06.51.12.24.04.34.06.21.03.2.01.25.02.05-.01.12-.01.94-.13.39-.08.37-.11.26-.08.07-.05.11-.09.32-.31.14-.14.12-.07.14-.06.13-.03.15-.02.32.01.14.03.1.02.3.13.19.08.57.3.13.09.07.05.05.06.81 2.92.65 4.05.46 3.65-.08.15-.1.25-.05.17-.1.4-.19.84-.13.65-.05.38-.12.81 0 .13-.01.18.02.21.1.34.11.21.13.17.16.16.43.42.19.14.25.15.3.16 1.69.84.09 0 .16 0 .25-.01.28 0 .16.01.1.03 1.78.74.1.05 1.72 1.31.09.07.08.12.09.2.07.2.03.15.03.95-.02.26-.05.18-.05.1-.04.09-.01.07.01.1 2.07 3.99.06.1.39.65.1.15.14.18.4.5.14.15.27.26.68.59.09.05 3.75 5.06.35 1.64 2.73-.51 6.95-.62.1-.01.12-.01 4.16-.62.12-.06.38-.44.12-.2.07-.21.04-.15.02-.35-.04-.3.04-.28.12-.21.42-.31.4-.06.55-.03.56.11.52.16.21.09.2.2 1.16-.37.37-.09.49-.02.32.03.13.04.28.08.2.08 6.04 3.06 3.59 1.62 5.75 2.54.27.06 4.52 3.21.81.8 1.52 1.75 2.33-1.53.11-.1 1.12-1.22.42-.5.3-.43.22-.39.18-.43.08-.33.03-.12.07-.49.47-7.62-.04-.2.16-.72.14-.41.53-.8 4.08-5.85 1.9-2.66.18-.12.65-.29 4.59-1.4.45-.09.53.02 2.18.51.81.27.84.41.38.13.27.08.06-.07 1.36-2.14.18-.46.01-.22-.1-.39-2.31-7.72-1.77-4.27-3.02-9-.02-.09.06-1.01z" /><path d="m268.77 438.26l-5.65 4.06-.57-.35-1.85-1.29-.61-.44-.58-.45-.48-.42-.5-.46-.41-.44-.18-.22-.13-.17-.31-.42-.05-.08-.52-.94-.17-.37-.08-.18-.04-.06-.14-.22-.12-.1-.28-.21-.18-.13-3.13-2.12-.14-.05-3.43.45-4.9-.12-1.58.15-1.05.08-2.26-.01-.22-.01-3.56-.1.31 2.3.18 1.37.57 5.94.1 2.07.09 1.78-.03 1.83-.03.3-.16 1.91-.35 1.53-.29 1.14-1.74 2.57-.5.45-1.67 1.29-.2.13-.05.04-2.09 1.49-2.16 1.54-1.6 1.16-3.98 2.95-2.29 1.78-.4.32-.55.39-.74.45-1.96 1.17-.93.37-.97.36-.69.17-.57.1-.73.09-.88.07-.86.04-.97-.02-.64-.03-.4-.06-.47-.06-.96-.17-.96-.19-4.14-.84-1.1-.24-16.53-3.91-.96-.23-1.05-.27-1.08-.31-2-.69-.66-.31-.74-.37-1.12-.56-.51-.3-1-.58-.37-.24-1.51-.96-.59-.34-1.06-.48-.71-.21-.42-.05-1.57-.14-1.54-.02-1.28.04-1.3.05-.44.04-.76.08-1.92.11-1.06-.04-2.06-.36-3.62-.8-1.6-.4-1.57-.43-1.03-.3-.56 1.09-.06.21.02.4.24.33 2.81 1.61-.3 1.47-.29.93-.32 1.48-.69 3.59-.36 4.99.02.05.03.07 3.97 2.61.29.17.23.08.31.05 1.92.48 1.97.72.18.08.17.1.13.08 1.69 1.32.07.06.04.04 1.9 3.96 3.09 4.54 2.06 2.99 6.97-.97 4.39-1.23 1.85 1.42.16.11.14.08 2.43.9 1.66.55.99.29.4.09 2.03.38.19.02.3 0 .36-.05.26-.08.41-.18.19-.07.17-.01.22.06 11.25 3.27 2.86.86.29.09.26.1.29.18 2.16 1.66.12.12.07.1.19.97-.01.22-.02.18-.07.25.01.22 1.04 3.03 3.75 9.54.18.38.15.22.84 1.14.07.07 3.56 3.02 4.95-.06.43-.14.51-.17.39-.06.3-.03.17 0 .24.04 6.12 2.05.18.07 1.19.53.21.11 1.26.72.17.1.8.51.2.18 1.79 1.06 3.87 1.41 2.37.41.1 0 3.23-.4 1.26-.19.11-.02.08-.06 0-.11.02-.72 0-2.29-.01-.51-.02-2.11.07-.31.07-.22.02-.05.07-.15.09-.14.05-.09.2-.26.29-.34.21-.23.35-.38.09-.1.29-.29.24-.22.27-.27.11-.11.15-.15.38-.36.14-.14.04-.05.05-.05.19-.24.07-.08.37-.48.12-.24.09-.14.07-.16.13-.31.11-.29.13-.49.04-.41-.03-.47-.09-.39-.31-.98-.42-1.2-.08-.22-.04-.12-.57-1.64-.03-.21-.07-.4.02-.31.28-1.14 1.72-2.72 1.44-1.42.92-.51 3.26-.45-1.02-3.03-2.61.62-.28-.4-.62-.92-1.11-2.47-.8-2.19.23-3.42 1.37-3.9 8.16-4.25 6.25-2.73.37-.15-.02-3.67-.01-3.26-.01-.63 0-8.31 1.36-1.9 1.23.02 1.23-.33.76-.72.39-.94 0-.97-.47-1.04-1.02-.85-1.41-.87-2.34-8.52-.03-.23.05-.22.17-.3.25-.43.2-.38.08-.35.18-1.19-.01-.17-.2-.43-.64-1.04-.78-1.14z" /><path d="m363.87 433.55l-1.52-1.75-.81-.8-4.52-3.21-.27-.06-5.75-2.54-3.59-1.62-6.04-3.06-.2-.08-.28-.08-.13-.04-.32-.03-.49.02-.37.09-1.16.37-.2-.2-.21-.09-.52-.16-.56-.11-.55.03-.4.06-.42.31-.12.21-.04.28.04.3-.02.35-.04.15-.07.21-.12.2-.38.44-.12.06-4.16.62-.12.01-.1.01-6.95.62-2.73.51-2.03.96-.12.04-.19-.01-.69-.17-.35-.1-4.49-1.55-1.23-.58-4.31-.83-2.04.82-.16.07-7.23 2.59-4.9.87-7.73 2.14-.14.05-.17.1-.11.07-.09.07-1.7 1.53-2.29 2.1-2.19 1.3-2.38 1.36-1.34.3-.15-.06-.17-.05-.11 0-.2.05-.42.15-3.61 1.57-.53.32-.16.11-.63.47.78 1.14.64 1.04.2.43.01.17-.18 1.19-.08.35-.2.38-.25.43-.17.3-.05.22.03.23 2.34 8.52 1.41.87 1.02.85.47 1.04 0 .97-.39.94-.76.72-1.23.33-1.23-.02-1.36 1.9 0 8.31.01.63.01 3.26.02 3.67-.37.15-6.25 2.73-8.16 4.25-1.37 3.9-.23 3.42.8 2.19 1.11 2.47.62.92.28.4 2.61-.62 1.02 3.03-3.26.45.31 1.21.11.51.06.3.08.58-.09.69-.17.38-.13.97-.27 2.22.13 2.96.09 1.06 1.78 2.94 3.8 6.67.07.14-.21 1.94-.25 2-.36 2.61-.22 1.62-.08.71.02.55.21.62.31.71.74 1.36 3.55 4.61.31.36.2.21.27.25.28.15 1.03.43 1.13.58.74.42.48.35.32.29.4.44.37.55 1.27 2.04 1.84 3.25-.16.15.35.5.32.44 2.65 2.64 1.77 1 .78.44 2.5 1.09 3.47.04.66 0 3.65-2.41.16-.11.38-.25 1.54-.82 1.56-.73 3.08-1.26.93-.31 1.82.13 1.29.34 1.16.82 2.2 3.29 1.02 2.19 2.82.41 2.06-.18 12.43-3.26.56-.24.96-.51 2.69-.91 4.09.1 2.26.31.95.02 2.77-.38.43-.07.29-.11.54-.26.79-.48 1.58-1.26 2.31-2.14 1.31-1.4.09-.11 1.13-3.37.06-.5-.06-.94-.09-.32-2.11-2.47-1.25-1.4-2.11-1.29.01-.24.04-2.73.46-4.59 1.14-6.62.3-4.74.05-.4.29-1.35.59-2.68.27-1.11.38-2.62-.04-.36-.11-.33-.28-.76-.18-.4-.23-.49-.22-.41-.59-.79-.33-.34-.46-.32-.27-.21-.04-.07.19-1.45.06-.34.14-.23.37-.36.3-.25 1.33-.9.16-.1.48-.14.55-.15.54-.11.48-.01.55 0 1.52-.16 5.52-1.09.12-.07 1.65-.97.08-.09.11-.19.2-.5.11-.42.21-.62.76-1.21.45-.63.4-.42.34-.28.29-.2 5.39-2.74.25-.08 3.05-.85.99-.16.86-.14 10.19.44-2.37-1.86-.31-1.08-.25-1.64-.12-1.79.02-1.84.03-.24.16-.29 2.86-4.67 2.35-3.79-.1-.12-.82-.68-.34-.21-.29-.14-.38-.11-.27-.03-.19-.1-2.46-2.06-.29-.29-.07-.17.01-.09 0-.05.93-6.71.09-.27.35-1.05-.1-4.44-3.85-7.89-.34-.37-.93-.95-2.46-2.48-1.55-1.05-1.72-1.32-1.22-1.65.27-.38 0-.17-.08-.33-.06-.15-.08-.21-.76-1.63-.1-.14-.13-.2-.34-.35z" /><path d="m150.78 457.15l-9.49-2.94-8.99-3.22-2.42-.75-1.45-.32-1.23-.11-.68.05-.55.09-1.27.22-1.12.38-2.25 1.21-1.6.87-.45.31-.4.28-.63.44-1.37 1.48-.14.21-.29.43-.11.16-.17.3-.09.17-.05.1-.01.07-.91 8.91-.05 1.61.1.46.36 1.58 1.61 4.18 1.83 5.21.51 1.79.42 1.71.03.14.46 1.92.32 1.01.45 1.05 1.35 2.08 2.49 2.92 2.16 2.83.26.43.85 1.26 1.72 2.33.88 1.02.6.68 2.48 2.73.64.62 1.73 1.66 1.54 1.35 2.95 2.45 8.77 7.96.37.35 1.57 1.38 1.93 1.61 1.42 1.16.23.2 3.54 2.88 1.42 1.07 4.53 2.64 8.86 4.93 1.06.6 6.72 2.17 6.48 4.58 2.32 2.16.76 2.17-.02.72-.03 1.81-.18 4.07-.29 2.55-.2 1.81-.21.62-.51 1.49-.39 1.12-1.26 1.48-1.59.85-.95.5-3.87 2.99-.14.18-.82.99-4.16 5.37-.88 1.2-.73 1.14-.48.75-.94 1.79-.84 1.99-.61 2.01-.59 1.75-.35.83-.32.57-.35.51-.87 1.13-.91.91-.79.67-.98.7-.99.48-.84.28-3.06.76-2.43.52-2.5.39-2.45.23-1.65.03-1.02-.04-1.83-.27-2.39-.34-2.93-.24 1.05 1.76.29.47.37.42 1.17 1.18.05.03.14.07 6.31 2.17.29.08.53.1.62.04 4.89.01.19-.02.28-.06.41-.17.26-.15.07-.05.33-.35.7-.73.25-.29.14-.3.22-.91.09-.45.09-.3.15-.17.17-.16.34-.25.7-.27 2.27-.16 1.24-.03.82-.02.11-.04 6.28-3.3 3.14-2.16 1.88-.45.59-.28 4.73-2.1.07-.02 4.87.16 3.1.12.69.81.79.52.82.19 3.97-.55 2.47-.41 2.93-1.83.12-.1.2-.19 1.64-1.61 1.25-1.39.19-.38.07-.23 0-.14 0-.11-.02-.31-.08-.21-.09-.13-.24-.12-.1-.05-.07-.06-.01-.07.02-.07 1.13-1.45.7-.66.1-.03.12-.03.57-.08.34-.03.08 0 .49.04.21.02.52.17.34.16.27.18.28.48.09.26.01.05.16.2.28.18.86.3 2.32.43.47.04.27-.01 1.31-.11.47-.09.25-.05.12-.04.25-.11.22-.2.11-.21.07-.25-.01-.73.06-.33.25-.6.33-.55.14-.1.15-.07 3.34-1.59.15-.01.16.02 2.52.88 4.81-.94 1.84-2.63 6.84-8.49 1.03-.88 10.86-9.04.24-.17.11-.07.1-.03.12-.02.15 0 .17.03.57.13.84.32 3.44.04 5.91 1.15.37.01.27.01.81-.31.19-.07 2.72-3.09 2.06-.91 1.09-.29.21-.02.35-.04.46-.05 1.33-.12.16-.15-1.84-3.25-1.27-2.04-.37-.55-.4-.44-.32-.29-.48-.35-.74-.42-1.13-.58-1.03-.43-.28-.15-.27-.25-.2-.21-.31-.36-3.55-4.61-.74-1.36-.31-.71-.21-.62-.02-.55.08-.71.22-1.62.36-2.61.25-2 .21-1.94-.07-.14-3.8-6.67-1.78-2.94-.09-1.06-.13-2.96.27-2.22.13-.97.17-.38.09-.69-.08-.58-.06-.3-.11-.51-.31-1.21-.92.51-1.44 1.42-1.72 2.72-.28 1.14-.02.31.07.4.03.21.57 1.64.04.12.08.22.42 1.2.31.98.09.39.03.47-.04.41-.13.49-.11.29-.13.31-.07.16-.09.14-.12.24-.37.48-.07.08-.19.24-.05.05-.04.05-.14.14-.38.36-.15.15-.11.11-.27.27-.24.22-.29.29-.09.1-.35.38-.21.23-.29.34-.2.26-.05.09-.09.14-.07.15-.02.05-.07.22-.07.31.02 2.11.01.51 0 2.29-.02.72 0 .11-.08.06-.11.02-1.26.19-3.23.4-.1 0-2.37-.41-3.87-1.41-1.79-1.06-.2-.18-.8-.51-.17-.1-1.26-.72-.21-.11-1.19-.53-.18-.07-6.12-2.05-.24-.04-.17 0-.3.03-.39.06-.51.17-.43.14-4.95.06-3.56-3.02-.07-.07-.84-1.14-.15-.22-.18-.38-3.75-9.54-1.04-3.03-.01-.22.07-.25.02-.18.01-.22-.19-.97-.07-.1-.12-.12-2.16-1.66-.29-.18-.26-.1-.29-.09-2.86-.86-11.25-3.27-.22-.06-.17.01-.19.07-.41.18-.26.08-.36.05-.3 0-.19-.02-2.03-.38-.4-.09-.99-.29-1.66-.55-2.43-.9-.14-.08-.16-.11-1.85-1.42-4.39 1.23-6.97.97-2.06-2.99-3.09-4.54-1.9-3.96-.04-.04-.07-.06-1.69-1.32-.13-.08-.17-.1-.18-.08-1.97-.72-1.92-.48-.31-.05-.23-.08-.29-.17-3.97-2.61-.03-.07-.02-.05.36-4.99.69-3.59.32-1.48.29-.93.3-1.47-2.81-1.61-.24-.33-.02-.4.06-.21.56-1.09z" /></g></g></svg>